<svg width="237" height="117" viewBox="0 0 237 117" fill="none" xmlns="http://www.w3.org/2000/svg">
<path d="M233.658 110H3.34153C1.49605 110 0 111.567 0 113.5C0 115.433 1.49605 117 3.34153 117H233.658C235.504 117 237 115.433 237 113.5C237 111.567 235.504 110 233.658 110Z" fill="#3D4A51"/>
<path d="M120.773 102.122L119.71 90.245H102.272L101.21 102.122C100.962 104.881 99.3037 107.522 96.7 109.631L96.6968 109.657H125.288L125.284 109.631C122.681 107.522 121.02 104.88 120.773 102.122Z" fill="#B0C2D3"/>
<g opacity="0.28">
<path d="M102.272 90.2443L101.633 97.3726H120.348L119.71 90.2443H102.272Z" fill="#283035"/>
<path d="M120.348 98.0785H101.633C101.535 98.0785 101.438 98.0581 101.348 98.0186C101.259 97.9791 101.178 97.9213 101.112 97.8489C101.046 97.7766 100.996 97.6912 100.964 97.5984C100.933 97.5055 100.921 97.4071 100.93 97.3095L101.568 90.1801C101.584 90.0045 101.665 89.8412 101.795 89.7222C101.925 89.6033 102.095 89.5374 102.272 89.5374H119.71C119.886 89.5374 120.056 89.6033 120.186 89.7222C120.316 89.8412 120.397 90.0045 120.413 90.1801L121.051 97.3095C121.06 97.4071 121.048 97.5055 121.017 97.5984C120.986 97.6912 120.935 97.7766 120.869 97.8489C120.803 97.9213 120.723 97.9791 120.633 98.0186C120.543 98.0581 120.447 98.0785 120.348 98.0785ZM102.405 96.6668H119.576L119.064 90.9491H102.917L102.405 96.6668Z" fill="#283035"/>
</g>
<path d="M125.286 110.362H96.6955C96.5956 110.362 96.4968 110.341 96.4057 110.3C96.3146 110.259 96.2333 110.199 96.1671 110.124C96.1008 110.049 96.0513 109.961 96.0216 109.866C95.9919 109.771 95.9828 109.67 95.9949 109.571C96.0177 109.381 96.1101 109.207 96.2543 109.082C98.7725 107.043 100.282 104.548 100.505 102.059L101.569 90.1818C101.585 90.0062 101.666 89.8429 101.796 89.7239C101.926 89.605 102.096 89.5391 102.272 89.5391H119.71C119.886 89.5391 120.056 89.605 120.186 89.7239C120.316 89.8429 120.397 90.0062 120.413 90.1818L121.477 102.059C121.7 104.548 123.209 107.042 125.727 109.082C125.87 109.197 125.962 109.363 125.984 109.545C125.996 109.646 125.987 109.748 125.958 109.845C125.928 109.943 125.879 110.033 125.813 110.11C125.748 110.187 125.667 110.249 125.577 110.292C125.486 110.336 125.387 110.36 125.286 110.362ZM98.5001 108.95H123.48C121.478 106.916 120.281 104.562 120.069 102.184L119.062 90.9505H102.917L101.911 102.185C101.698 104.562 100.504 106.916 98.5001 108.95Z" fill="#283035"/>
<path d="M166.756 10.8325H55.2263C52.8872 10.8325 50.991 12.7287 50.991 15.0678V87.7737C50.991 90.1128 52.8872 92.009 55.2263 92.009H166.756C169.095 92.009 170.991 90.1128 170.991 87.7737V15.0678C170.991 12.7287 169.095 10.8325 166.756 10.8325Z" fill="white"/>
<path d="M166.756 10.8325H55.2263C52.8872 10.8325 50.991 12.7287 50.991 15.0678V87.7737C50.991 90.1128 52.8872 92.009 55.2263 92.009H166.756C169.095 92.009 170.991 90.1128 170.991 87.7737V15.0678C170.991 12.7287 169.095 10.8325 166.756 10.8325Z" fill="#D2DCE6"/>
<path d="M166.756 92.7152H55.2263C53.9162 92.7137 52.6603 92.1926 51.734 91.2663C50.8077 90.34 50.2866 89.084 50.2851 87.774V15.0681C50.2865 13.7581 50.8075 12.5021 51.7339 11.5757C52.6602 10.6494 53.9162 10.1284 55.2263 10.127H166.756C168.066 10.1284 169.322 10.6494 170.248 11.5757C171.174 12.5021 171.695 13.7581 171.697 15.0681V87.774C171.695 89.084 171.174 90.34 170.248 91.2663C169.322 92.1926 168.066 92.7137 166.756 92.7152ZM55.2263 11.5387C54.2905 11.5397 53.3934 11.9119 52.7317 12.5736C52.0701 13.2353 51.6979 14.1324 51.6969 15.0681V87.774C51.6979 88.7098 52.0701 89.6069 52.7317 90.2686C53.3934 90.9302 54.2905 91.3024 55.2263 91.3034H166.756C167.691 91.3023 168.588 90.9301 169.25 90.2684C169.912 89.6068 170.284 88.7097 170.285 87.774V15.0681C170.284 14.1324 169.912 13.2353 169.25 12.5736C168.589 11.9119 167.691 11.5397 166.756 11.5387H55.2263Z" fill="#283035"/>
<path d="M164.991 78.4528V16.8325L56.991 16.8325V78.4528H164.991Z" fill="url(#paint0_linear_59_458)"/>
<path d="M164.991 79.1591H56.991C56.8038 79.1591 56.6242 79.0847 56.4918 78.9523C56.3595 78.8199 56.2851 78.6404 56.2851 78.4532V16.8325C56.2851 16.6453 56.3595 16.4657 56.4918 16.3333C56.6242 16.201 56.8038 16.1266 56.991 16.1266H164.991C165.178 16.1266 165.358 16.201 165.49 16.3333C165.622 16.4657 165.697 16.6453 165.697 16.8325V78.4532C165.697 78.6404 165.622 78.8199 165.49 78.9523C165.358 79.0847 165.178 79.1591 164.991 79.1591ZM57.6969 77.7473H164.285V17.5384H57.6969V77.7473Z" fill="#283035"/>
<path d="M115.736 85.9038H106.245C106.058 85.9038 105.879 85.8294 105.746 85.697C105.614 85.5647 105.539 85.3851 105.539 85.1979C105.539 85.0107 105.614 84.8311 105.746 84.6988C105.879 84.5664 106.058 84.492 106.245 84.492H115.736C115.923 84.492 116.103 84.5664 116.235 84.6988C116.368 84.8311 116.442 85.0107 116.442 85.1979C116.442 85.3851 116.368 85.5647 116.235 85.697C116.103 85.8294 115.923 85.9038 115.736 85.9038Z" fill="#283035"/>
<path d="M22.2525 70.7071L18.8124 71.111L21.8017 96.5773L25.2419 96.1735L22.2525 70.7071Z" fill="url(#paint1_linear_59_458)"/>
<path d="M22.2525 70.7071L18.8124 71.111L19.1165 73.7014L22.5566 73.2976L22.2525 70.7071Z" fill="#FE4D4D"/>
<path d="M19.1163 74.4063C18.9434 74.4063 18.7765 74.3428 18.6472 74.2278C18.518 74.1129 18.4355 73.9545 18.4154 73.7827L18.1112 71.1921C18.1003 71.1 18.1077 71.0068 18.133 70.9175C18.1582 70.8283 18.2008 70.745 18.2582 70.6722C18.3157 70.5994 18.3869 70.5387 18.4678 70.4935C18.5487 70.4483 18.6378 70.4194 18.7299 70.4086L22.17 70.0048C22.2621 69.994 22.3553 70.0014 22.4446 70.0266C22.5338 70.0519 22.6171 70.0944 22.6899 70.1519C22.7627 70.2093 22.8234 70.2806 22.8686 70.3615C22.9138 70.4424 22.9427 70.5315 22.9535 70.6235L23.2574 73.2141C23.2792 73.4 23.2262 73.5869 23.1102 73.7338C22.9942 73.8807 22.8246 73.9754 22.6387 73.9973L19.1986 74.4014C19.1713 74.4046 19.1438 74.4063 19.1163 74.4063ZM19.5956 71.7286L19.735 72.9169L21.7729 72.6777L21.6339 71.4893L19.5956 71.7286Z" fill="#283035"/>
<path d="M21.8015 97.2834C21.6286 97.2833 21.4616 97.2198 21.3324 97.1048C21.2032 96.9899 21.1207 96.8315 21.1006 96.6597L18.1112 71.1936C18.1003 71.1015 18.1077 71.0082 18.133 70.919C18.1582 70.8298 18.2008 70.7464 18.2582 70.6737C18.3157 70.6009 18.3869 70.5402 18.4678 70.495C18.5487 70.4497 18.6378 70.4209 18.7299 70.4101L22.17 70.0063C22.2621 69.9955 22.3553 70.0029 22.4446 70.0281C22.5338 70.0534 22.6171 70.0959 22.6899 70.1534C22.7627 70.2108 22.8234 70.282 22.8686 70.363C22.9138 70.4439 22.9427 70.5329 22.9535 70.625L25.9429 96.0911C25.9538 96.1832 25.9463 96.2765 25.9211 96.3657C25.8959 96.4549 25.8533 96.5383 25.7959 96.611C25.7384 96.6838 25.6672 96.7445 25.5863 96.7898C25.5053 96.835 25.4163 96.8638 25.3242 96.8747L21.8841 97.2784C21.8567 97.2816 21.8291 97.2833 21.8015 97.2834ZM19.5956 71.7304L22.4192 95.7943L24.4574 95.5553L21.6339 71.4911L19.5956 71.7304Z" fill="#283035"/>
<path d="M31.7251 75.8932L28.2816 75.5189L25.5106 101.01L28.9541 101.384L31.7251 75.8932Z" fill="url(#paint2_linear_59_458)"/>
<path d="M28.9563 102.088C28.9306 102.088 28.9048 102.088 28.8791 102.084L25.4354 101.71C25.2496 101.69 25.0794 101.597 24.9622 101.451C24.8449 101.305 24.7902 101.119 24.81 100.933L27.5806 75.4426C27.6008 75.2568 27.694 75.0866 27.8395 74.9694C27.9851 74.8522 28.1712 74.7974 28.3571 74.8172L31.8007 75.1913C31.9866 75.2115 32.1569 75.3046 32.2742 75.4501C32.3915 75.5957 32.4463 75.7819 32.4265 75.9678L29.6555 101.459C29.6368 101.631 29.5551 101.791 29.4262 101.907C29.2972 102.023 29.1299 102.088 28.9563 102.088ZM26.2895 100.382L28.3295 100.605L30.948 76.5173L28.908 76.2953L26.2895 100.382Z" fill="#283035"/>
<path d="M31.7253 75.8931L28.2819 75.5188L28 78.1118L31.4435 78.4861L31.7253 75.8931Z" fill="#FE4D4D"/>
<path d="M31.446 79.1905C31.4206 79.1905 31.3948 79.1905 31.369 79.1866L27.9254 78.8122C27.7395 78.792 27.5692 78.6989 27.4519 78.5533C27.3346 78.4078 27.2798 78.2216 27.2996 78.0357L27.582 75.4426C27.6022 75.2568 27.6953 75.0866 27.8409 74.9694C27.9865 74.8522 28.1726 74.7974 28.3584 74.8172L31.8021 75.1913C31.9879 75.2115 32.1582 75.3046 32.2755 75.4501C32.3929 75.5957 32.4476 75.7819 32.4278 75.9678L32.1455 78.5608C32.1267 78.7335 32.045 78.8931 31.916 79.0093C31.7869 79.1254 31.6196 79.19 31.446 79.1905ZM28.7795 77.4847L30.8195 77.7067L30.949 76.5173L28.909 76.2953L28.7795 77.4847Z" fill="#283035"/>
<path d="M33.8163 109.691H19.9595L17.7059 88.4499H36.0698L33.8163 109.691Z" fill="#BFBFBF"/>
<g style="mix-blend-mode:overlay">
<path d="M17.7059 88.4499L17.7472 88.8399H31.7385L29.5263 109.691H33.8163L36.0698 88.4499H17.7059Z" fill="#262626"/>
</g>
<path d="M33.8159 110.397H19.9595C19.7851 110.397 19.6168 110.332 19.4872 110.216C19.3575 110.099 19.2755 109.939 19.2571 109.765L17.0039 88.524C16.9935 88.4256 17.0039 88.3261 17.0344 88.2319C17.0649 88.1377 17.1149 88.051 17.1811 87.9774C17.2473 87.9039 17.3282 87.845 17.4187 87.8047C17.5091 87.7645 17.607 87.7436 17.7059 87.7437H36.0698C36.1688 87.7436 36.2667 87.7645 36.3571 87.8047C36.4475 87.845 36.5285 87.9039 36.5947 87.9774C36.6609 88.051 36.7109 88.1377 36.7414 88.2319C36.7719 88.3261 36.7823 88.4256 36.7718 88.524L34.5183 109.765C34.5 109.939 34.4181 110.099 34.2884 110.216C34.1587 110.332 33.9904 110.397 33.8159 110.397ZM20.5941 108.985H33.1814L35.2849 89.1558H18.4905L20.5941 108.985Z" fill="#283035"/>
<g style="mix-blend-mode:multiply" opacity="0.32">
<path d="M152.93 15H78.0698C76.3744 15 75 16.3854 75 18.0944V71.9056C75 73.6146 76.3744 75 78.0698 75H152.93C154.626 75 156 73.6146 156 71.9056V18.0944C156 16.3854 154.626 15 152.93 15Z" fill="#999999"/>
</g>
<path d="M149.93 12H75.0698C73.3744 12 72 13.3854 72 15.0944V68.9056C72 70.6146 73.3744 72 75.0698 72H149.93C151.626 72 153 70.6146 153 68.9056V15.0944C153 13.3854 151.626 12 149.93 12Z" fill="#121F21"/>
<path d="M149.094 73H74.9059C73.8704 72.9987 72.8776 72.5849 72.1454 71.8492C71.4132 71.1135 71.0013 70.1161 71 69.0757V15.9243C71.0013 14.8839 71.4132 13.8864 72.1454 13.1508C72.8776 12.4151 73.8704 12.0013 74.9059 12H149.094C150.13 12.0013 151.122 12.4151 151.855 13.1508C152.587 13.8864 152.999 14.8839 153 15.9243V69.0757C152.999 70.1161 152.587 71.1135 151.855 71.8492C151.122 72.5849 150.13 72.9987 149.094 73ZM74.9059 13.735C74.3283 13.7357 73.7746 13.9665 73.3662 14.3768C72.9578 14.7872 72.728 15.3435 72.7273 15.9238V69.0757C72.728 69.656 72.9578 70.2124 73.3662 70.6227C73.7746 71.033 74.3283 71.2639 74.9059 71.2646H149.094C149.672 71.264 150.226 71.0332 150.634 70.6228C151.042 70.2125 151.272 69.6561 151.273 69.0757V15.9243C151.272 15.3439 151.042 14.7875 150.634 14.3772C150.226 13.9668 149.672 13.736 149.094 13.7354L74.9059 13.735Z" fill="#283035"/>
<path d="M142.968 7H69.0319C67.3574 7 66 8.38542 66 10.0944V63.9056C66 65.6146 67.3574 67 69.0319 67H142.968C144.643 67 146 65.6146 146 63.9056V10.0944C146 8.38542 144.643 7 142.968 7Z" fill="#121F21"/>
<path d="M143.094 67H68.9059C67.8703 66.9989 66.8775 66.585 66.1453 65.8493C65.413 65.1136 65.0011 64.1161 65 63.0757V9.92435C65.0011 8.8839 65.413 7.88639 66.1453 7.15068C66.8775 6.41497 67.8703 6.00115 68.9059 6H143.094C144.13 6.00115 145.122 6.41497 145.855 7.15068C146.587 7.88639 146.999 8.8839 147 9.92435V63.0757C146.999 64.1161 146.587 65.1136 145.855 65.8493C145.122 66.585 144.13 66.9989 143.094 67ZM68.9059 7.73331C68.3283 7.73388 67.7745 7.96468 67.366 8.37505C66.9576 8.78541 66.7279 9.34183 66.7273 9.92218V63.0757C66.7279 63.656 66.9576 64.2124 67.366 64.6228C67.7745 65.0331 68.3283 65.2639 68.9059 65.2645H143.094C143.672 65.2639 144.226 65.0331 144.634 64.6228C145.042 64.2124 145.272 63.656 145.273 63.0757V9.92435C145.272 9.344 145.042 8.78759 144.634 8.37722C144.226 7.96685 143.672 7.73606 143.094 7.73548L68.9059 7.73331Z" fill="#283035"/>
<path d="M69.1632 7H143.042C143.827 7 144.579 7.30847 145.134 7.85755C145.688 8.40663 146 9.15133 146 9.92785V16H66V10.1311C66.0001 9.30063 66.3334 8.50422 66.9266 7.91704C67.5199 7.32986 68.3244 7 69.1632 7Z" fill="white"/>
<path d="M146.137 17H65.8637C65.6346 17 65.4149 16.9077 65.253 16.7435C65.091 16.5793 65 16.3566 65 16.1243V10.0937C65.0011 9.00834 65.4269 7.96775 66.1839 7.20029C66.9408 6.43282 67.9672 6.00116 69.0377 6H143.169C144.184 6.00116 145.158 6.41071 145.876 7.13884C146.595 7.86696 146.999 8.8542 147 9.88398V16.1239C147 16.3561 146.909 16.5788 146.747 16.7431C146.586 16.9073 146.366 16.9998 146.137 17ZM66.7274 15.2487H145.274V9.8844C145.273 9.31877 145.051 8.77654 144.656 8.3767C144.262 7.97686 143.727 7.7521 143.169 7.75175H69.0377C68.4252 7.75245 67.8379 7.99946 67.4048 8.43859C66.9717 8.87772 66.728 9.4731 66.7274 10.0941V15.2487Z" fill="#283035"/>
<path d="M73.5 13C74.3284 13 75 12.3284 75 11.5C75 10.6716 74.3284 10 73.5 10C72.6716 10 72 10.6716 72 11.5C72 12.3284 72.6716 13 73.5 13Z" fill="#121F21"/>
<path d="M78.5 13C79.3284 13 80 12.3284 80 11.5C80 10.6716 79.3284 10 78.5 10C77.6716 10 77 10.6716 77 11.5C77 12.3284 77.6716 13 78.5 13Z" fill="#F08A75"/>
<path d="M83.5 13C84.3284 13 85 12.3284 85 11.5C85 10.6716 84.3284 10 83.5 10C82.6716 10 82 10.6716 82 11.5C82 12.3284 82.6716 13 83.5 13Z" fill="#477A85"/>
<path d="M139.13 21H72.87C72.3895 21 72 21.3886 72 21.8679V31.1321C72 31.6114 72.3895 32 72.87 32H139.13C139.61 32 140 31.6114 140 31.1321V21.8679C140 21.3886 139.61 21 139.13 21Z" fill="#477A85"/>
<path d="M92.1228 37H72.8772C72.3927 37 72 37.4046 72 37.9038V43.0962C72 43.5954 72.3927 44 72.8772 44H92.1228C92.6073 44 93 43.5954 93 43.0962V37.9038C93 37.4046 92.6073 37 92.1228 37Z" fill="#283035"/>
<path d="M90.279 49.5609H75.0217C74.7918 49.5609 74.5714 49.4689 74.4088 49.3052C74.2463 49.1414 74.155 48.9193 74.155 48.6876C74.155 48.456 74.2463 48.2339 74.4088 48.0701C74.5714 47.9063 74.7918 47.8143 75.0217 47.8143H90.279C90.5088 47.8143 90.7293 47.9063 90.8918 48.0701C91.0544 48.2339 91.1457 48.456 91.1457 48.6876C91.1457 48.9193 91.0544 49.1414 90.8918 49.3052C90.7293 49.4689 90.5088 49.5609 90.279 49.5609Z" fill="#283035"/>
<path d="M90.279 54.4803H75.0217C74.7918 54.4803 74.5714 54.3883 74.4088 54.2245C74.2463 54.0607 74.155 53.8386 74.155 53.607C74.155 53.3754 74.2463 53.1533 74.4088 52.9895C74.5714 52.8257 74.7918 52.7337 75.0217 52.7337H90.279C90.5088 52.7337 90.7293 52.8257 90.8918 52.9895C91.0544 53.1533 91.1457 53.3754 91.1457 53.607C91.1457 53.8386 91.0544 54.0607 90.8918 54.2245C90.7293 54.3883 90.5088 54.4803 90.279 54.4803Z" fill="#283035"/>
<path d="M116.123 37H96.8772C96.3927 37 96 37.4046 96 37.9038V43.0962C96 43.5954 96.3927 44 96.8772 44H116.123C116.607 44 117 43.5954 117 43.0962V37.9038C117 37.4046 116.607 37 116.123 37Z" fill="#283035"/>
<path d="M113.47 49.5609H98.8224C98.5926 49.5609 98.3721 49.4689 98.2096 49.3052C98.047 49.1414 97.9557 48.9193 97.9557 48.6876C97.9557 48.456 98.047 48.2339 98.2096 48.0701C98.3721 47.9063 98.5926 47.8143 98.8224 47.8143H113.47C113.7 47.8143 113.921 47.9063 114.083 48.0701C114.246 48.2339 114.337 48.456 114.337 48.6876C114.337 48.9193 114.246 49.1414 114.083 49.3052C113.921 49.4689 113.7 49.5609 113.47 49.5609Z" fill="#283035"/>
<path d="M113.47 54.4803H98.8224C98.5926 54.4803 98.3721 54.3883 98.2096 54.2245C98.047 54.0607 97.9557 53.8386 97.9557 53.607C97.9557 53.3754 98.047 53.1533 98.2096 52.9895C98.3721 52.8257 98.5926 52.7337 98.8224 52.7337H113.47C113.7 52.7337 113.921 52.8257 114.083 52.9895C114.246 53.1533 114.337 53.3754 114.337 53.607C114.337 53.8386 114.246 54.0607 114.083 54.2245C113.921 54.3883 113.7 54.4803 113.47 54.4803Z" fill="#283035"/>
<path d="M139.456 37.0041H120.44C119.961 37.0041 119.573 37.3951 119.573 37.8774V53.3485C119.573 53.8308 119.961 54.2218 120.44 54.2218H139.456C139.935 54.2218 140.323 53.8308 140.323 53.3485V37.8774C140.323 37.3951 139.935 37.0041 139.456 37.0041Z" fill="#283035"/>
<path d="M138.847 59.1412H120.714C120.551 59.1442 120.39 59.1147 120.239 59.0543C120.089 58.9939 119.951 58.9038 119.836 58.7893C119.72 58.6748 119.628 58.5381 119.565 58.3874C119.502 58.2367 119.47 58.0748 119.47 57.9113C119.47 57.7478 119.502 57.586 119.565 57.4353C119.628 57.2845 119.72 57.1479 119.836 57.0334C119.951 56.9189 120.089 56.8288 120.239 56.7684C120.39 56.7079 120.551 56.6784 120.714 56.6815H138.847C139.167 56.6876 139.471 56.8198 139.695 57.0498C139.919 57.2798 140.045 57.5891 140.045 57.9113C140.045 58.2335 139.919 58.5429 139.695 58.7729C139.471 59.0029 139.167 59.1351 138.847 59.1412Z" fill="#283035"/>
<path d="M187.514 69.6289H210.109C211.568 69.6289 212.751 70.8825 212.751 72.4289V106.829C212.751 108.375 211.568 109.629 210.109 109.629H187.514C186.054 109.629 184.871 108.375 184.871 106.829V72.4289C184.871 70.8825 186.054 69.6289 187.514 69.6289Z" fill="white"/>
<path d="M210.109 69.6289H209.774C209.822 69.8406 209.847 70.0575 209.847 70.2751V104.675C209.847 106.222 208.664 107.475 207.204 107.475H184.947C185.229 108.737 186.292 109.628 187.516 109.629H210.11C211.57 109.629 212.753 108.375 212.753 106.829V72.4289C212.753 70.8825 211.57 69.6289 210.11 69.6289C210.11 69.6289 210.109 69.6289 210.109 69.6289Z" fill="#999999"/>
<path d="M210.109 110.552H187.514C185.576 110.552 184 108.882 184 106.829V72.429C184 70.376 185.576 68.7056 187.514 68.7056H210.109C212.046 68.7056 213.623 70.376 213.623 72.429V106.829C213.623 108.882 212.046 110.552 210.109 110.552ZM187.514 70.552C186.537 70.552 185.743 71.3939 185.743 72.4293V106.829C185.743 107.864 186.537 108.706 187.514 108.706H210.109C211.086 108.706 211.88 107.864 211.88 106.829V72.4293C211.88 71.3942 211.086 70.552 210.109 70.552H187.514Z" fill="#283035"/>
<path d="M203.458 67.3077H201.135V66.3846C201.135 65.0252 200.094 63.9231 198.811 63.9231C197.528 63.9231 196.488 65.0252 196.488 66.3846V67.3077H194.165C192.882 67.3077 191.841 68.4099 191.841 69.7692C191.841 71.1286 192.882 72.2308 194.165 72.2308H203.458C204.741 72.2308 205.781 71.1286 205.781 69.7692C205.781 68.4099 204.741 67.3077 203.458 67.3077Z" fill="#E6E6E6"/>
<path d="M204.537 67.5908C204.875 68.8978 204.149 70.2474 202.916 70.6052C202.714 70.6637 202.505 70.6929 202.296 70.6923H193.003C192.627 70.6926 192.256 70.5954 191.923 70.4095C192.196 71.4834 193.115 72.2298 194.165 72.2307H203.458C204.741 72.2295 205.78 71.1264 205.779 69.7667C205.778 68.8535 205.3 68.016 204.537 67.5908Z" fill="#BFBFBF"/>
<path d="M203.458 73.1538H194.165C192.403 73.1538 190.97 71.6354 190.97 69.7692C190.97 67.9031 192.403 66.3846 194.165 66.3846H195.617C195.617 64.5185 197.05 63 198.811 63C200.573 63 202.006 64.5185 202.006 66.3846H203.458C205.219 66.3846 206.653 67.9031 206.653 69.7692C206.653 71.6354 205.22 73.1538 203.458 73.1538ZM194.165 68.2308C193.364 68.2308 192.713 68.9209 192.713 69.7692C192.713 70.6175 193.364 71.3077 194.165 71.3077H203.458C204.259 71.3077 204.91 70.6175 204.91 69.7692C204.91 68.9209 204.259 68.2308 203.458 68.2308H201.135C200.654 68.2308 200.263 67.8175 200.263 67.3077V66.3846C200.263 65.5363 199.612 64.8462 198.811 64.8462C198.011 64.8462 197.359 65.5363 197.359 66.3846V67.3077C197.359 67.8175 196.969 68.2308 196.488 68.2308H194.165Z" fill="#283035"/>
<path d="M198.811 81.1538C200.148 81.1538 201.231 80.0059 201.231 78.5898C201.231 77.1737 200.148 76.0258 198.811 76.0258C197.475 76.0258 196.391 77.1737 196.391 78.5898C196.391 80.0059 197.475 81.1538 198.811 81.1538Z" fill="#8EAFBF"/>
<path d="M198.811 82.0769C196.997 82.0769 195.52 80.5126 195.52 78.5898C195.52 76.6671 196.997 75.1028 198.811 75.1028C200.626 75.1028 202.103 76.6671 202.103 78.5898C202.103 80.5126 200.626 82.0769 198.811 82.0769ZM198.811 76.9489C197.958 76.9489 197.263 77.6852 197.263 78.5898C197.263 79.4945 197.958 80.2308 198.811 80.2308C199.665 80.2308 200.36 79.4945 200.36 78.5898C200.36 77.6852 199.665 76.9489 198.811 76.9489Z" fill="#283035"/>
<path d="M195.391 87.4105H189.583C189.102 87.4105 188.712 86.9973 188.712 86.4874C188.712 85.9776 189.102 85.5643 189.583 85.5643H195.391C195.872 85.5643 196.262 85.9776 196.262 86.4874C196.262 86.9973 195.872 87.4105 195.391 87.4105Z" fill="#283035"/>
<path d="M195.391 95.7692H189.583C189.102 95.7692 188.712 95.356 188.712 94.8462C188.712 94.3363 189.102 93.9231 189.583 93.9231H195.391C195.872 93.9231 196.262 94.3363 196.262 94.8462C196.262 95.356 195.872 95.7692 195.391 95.7692Z" fill="#283035"/>
<path d="M195.391 104.128H189.583C189.102 104.128 188.712 103.715 188.712 103.205C188.712 102.695 189.102 102.282 189.583 102.282H195.391C195.872 102.282 196.262 102.695 196.262 103.205C196.262 103.715 195.872 104.128 195.391 104.128Z" fill="#283035"/>
<path d="M200.744 88.9074C200.567 88.9074 200.393 88.8228 200.279 88.6618L198.764 86.528C198.572 86.2563 198.623 85.8705 198.879 85.6662C199.136 85.4625 199.5 85.5169 199.693 85.788L200.858 87.4299L204.926 84.1905C205.183 83.9865 205.546 84.0415 205.739 84.3123C205.932 84.584 205.88 84.9699 205.624 85.1742L201.092 88.7834C200.987 88.8671 200.865 88.9074 200.744 88.9074Z" fill="#8BAFC1"/>
<path d="M200.743 97.2665C200.716 97.2665 200.688 97.2643 200.662 97.2603C200.509 97.2375 200.371 97.1514 200.279 97.0209L198.765 94.8865C198.572 94.6145 198.623 94.2289 198.88 94.0246C199.137 93.8206 199.501 93.8754 199.693 94.1465L200.858 95.7889L204.926 92.5492C205.183 92.3452 205.547 92.4003 205.739 92.6711C205.932 92.9428 205.88 93.3286 205.624 93.5329L201.093 97.1425C200.991 97.2234 200.868 97.2665 200.743 97.2665Z" fill="#8BAFC1"/>
<path d="M215.635 86.7661L212.758 87.1901L215.319 106.695L218.196 106.271L215.635 86.7661Z" fill="#5999A6"/>
<path d="M215.313 107.295C215.187 107.295 215.064 107.251 214.963 107.17C214.84 107.072 214.759 106.926 214.738 106.764L212.176 87.2597C212.155 87.0982 212.195 86.9342 212.288 86.804C212.381 86.6739 212.519 86.588 212.672 86.5659L215.548 86.1419C215.862 86.0923 216.159 86.3296 216.203 86.6665L218.765 106.171C218.809 106.507 218.587 106.818 218.269 106.865L215.393 107.289C215.366 107.293 215.339 107.295 215.313 107.295ZM213.407 87.6994L215.808 105.985L217.534 105.73L215.132 87.4453L213.407 87.6994Z" fill="#283035"/>
<path d="M218.19 106.255L215.313 106.679L217.152 109.514L218.19 106.255Z" fill="#E5E5E5"/>
<path d="M217.152 110.13C216.962 110.13 216.782 110.031 216.673 109.863L214.835 107.027C214.721 106.852 214.701 106.626 214.782 106.431C214.863 106.235 215.034 106.099 215.234 106.07L218.11 105.646C218.309 105.614 218.509 105.698 218.637 105.862C218.765 106.026 218.804 106.25 218.74 106.452L217.702 109.711C217.632 109.932 217.45 110.092 217.232 110.124C217.205 110.128 217.178 110.13 217.152 110.13ZM216.324 107.151L216.973 108.151L217.339 107.002L216.324 107.151Z" fill="#283035"/>
<path d="M214.566 83.6367L212.841 83.8915L213.242 86.9377L214.967 86.6829L214.566 83.6367Z" fill="#E5E5E5"/>
<path d="M213.241 87.5683C213.115 87.5683 212.993 87.5249 212.891 87.4443C212.768 87.3459 212.687 87.1997 212.666 87.0385L212.265 83.9926C212.221 83.656 212.442 83.3452 212.76 83.2982L214.485 83.0434C214.803 82.9985 215.096 83.2311 215.14 83.5677L215.541 86.6136C215.562 86.7751 215.522 86.9391 215.429 87.0693C215.336 87.1994 215.199 87.2852 215.046 87.3077L213.321 87.5625C213.294 87.5668 213.268 87.5683 213.241 87.5683ZM213.495 84.4317L213.736 86.2591L214.311 86.1742L214.07 84.3468L213.495 84.4317Z" fill="#283035"/>
<path d="M218.229 95.0624C218.033 95.0624 217.841 94.9572 217.732 94.7665C217.371 94.1366 217.117 93.4511 216.978 92.7289C216.792 91.7637 216.931 91.0138 217.042 90.4111C217.143 89.8646 217.189 89.5668 217.066 89.292C217.046 89.2486 217.028 89.204 217.009 89.1575C216.896 88.8852 216.807 88.6701 215.971 88.5421C215.653 88.4935 215.433 88.1815 215.479 87.8449C215.525 87.5083 215.819 87.2775 216.137 87.324C217.499 87.5323 217.85 88.1252 218.073 88.664C218.087 88.6972 218.1 88.7301 218.115 88.7612C218.409 89.416 218.294 90.0412 218.182 90.6465C218.081 91.1929 217.977 91.7585 218.116 92.4828C218.229 93.0652 218.434 93.6184 218.725 94.1274C218.892 94.4178 218.804 94.7966 218.53 94.9729C218.435 95.0335 218.332 95.0624 218.229 95.0624Z" fill="#283035"/>
<defs>
<linearGradient id="paint0_linear_59_458" x1="164.009" y1="78.6542" x2="114.343" y2="-3.33685" gradientUnits="userSpaceOnUse">
<stop offset="0.3125" stop-color="#EB6347"/>
<stop offset="1" stop-color="#365C63"/>
</linearGradient>
<linearGradient id="paint1_linear_59_458" x1="24.0132" y1="100.19" x2="20.5754" y2="70.904" gradientUnits="userSpaceOnUse">
<stop stop-color="white"/>
<stop offset="1" stop-color="#FFD499"/>
</linearGradient>
<linearGradient id="paint2_linear_59_458" x1="26.8597" y1="105.025" x2="30.0464" y2="75.7107" gradientUnits="userSpaceOnUse">
<stop stop-color="white"/>
<stop offset="1" stop-color="#FFD499"/>
</linearGradient>
</defs>
</svg>
