<?xml version="1.0" encoding="iso-8859-1"?>
<!-- Generator: Adobe Illustrator 18.1.1, SVG Export Plug-In . SVG Version: 6.00 Build 0)  -->
<svg version="1.1" id="Capa_1" xmlns="http://www.w3.org/2000/svg" xmlns:xlink="http://www.w3.org/1999/xlink" x="0px" y="0px"
	 viewBox="0 0 43.794 43.794" style="enable-background:new 0 0 43.794 43.794;" xml:space="preserve">
<g>
	<g>
		<path style="fill:#010002;" d="M11.5,43.793h20.794c6.341,0,11.5-5.159,11.5-11.5V11.501c0-6.341-5.159-11.5-11.5-11.5H11.5
			C5.159,0.001,0,5.16,0,11.501v20.793C0,38.634,5.159,43.793,11.5,43.793z M3,11.501c0-4.687,3.813-8.5,8.5-8.5h20.794
			c4.687,0,8.5,3.813,8.5,8.5v20.793c0,4.687-3.813,8.5-8.5,8.5H11.5c-4.687,0-8.5-3.813-8.5-8.5V11.501z"/>
		<path style="fill:#010002;" d="M12.229,34.897h19.512c3.584,0,6.5-2.785,6.5-6.209c0-3.543-0.988-6.344-2.939-8.326l-3.821-3.869
			c-2.468-2.51-5.684-2.569-8.227-0.128l-4.113,3.988c-0.665,0.639-1.278,1.362-1.82,2.002c-0.421,0.496-1.015,1.197-1.4,1.527
			c-0.09-0.068-0.187-0.143-0.287-0.22c-1.757-1.348-3.468-2.558-5.098-2.558c-0.659,0-1.263,0.207-1.745,0.598
			c-1.745,1.415-3.062,4.615-3.062,7.445C5.729,32.318,8.645,34.897,12.229,34.897z M10.592,24.108
			c0.778,0.066,2.541,1.418,3.215,1.935c0.285,0.219,0.535,0.41,0.734,0.551c0.396,0.279,0.854,0.427,1.326,0.427
			c1.433-0.001,2.503-1.264,3.742-2.726c0.519-0.612,1.055-1.245,1.614-1.782l4.113-3.988c1.388-1.332,2.645-1.311,4.007,0.074
			l3.821,3.869c1.377,1.4,2.075,3.493,2.075,6.221c0,1.77-1.57,3.209-3.5,3.209h-19.51c-1.93,0-3.5-1.233-3.5-2.75
			C8.729,27.129,9.694,24.923,10.592,24.108z"/>
		<circle style="fill:#010002;" cx="14.74" cy="15.132" r="3.593"/>
	</g>
</g>
<g>
</g>
<g>
</g>
<g>
</g>
<g>
</g>
<g>
</g>
<g>
</g>
<g>
</g>
<g>
</g>
<g>
</g>
<g>
</g>
<g>
</g>
<g>
</g>
<g>
</g>
<g>
</g>
<g>
</g>
</svg>
