<svg width="298" height="330" viewBox="0 0 298 330" fill="none" xmlns="http://www.w3.org/2000/svg">
<g clip-path="url(#clip0_59_457)">
<path opacity="0.43" d="M250 257H71L137.907 104H183.093L250 257Z" fill="url(#paint0_linear_59_457)"/>
<path d="M91.9726 174.109H190.069C192.814 174.109 195.039 176.466 195.039 179.374V247.955H87.0038V179.374C87.0041 176.466 89.2284 174.109 91.9726 174.109Z" fill="#D2DCE6"/>
<path d="M195.039 248.878H87.0038C86.5226 248.878 86.1326 248.465 86.1326 247.955V179.374C86.1329 175.962 88.7527 173.186 91.9726 173.186H190.07C193.29 173.186 195.91 175.962 195.91 179.374V247.955C195.911 248.465 195.521 248.878 195.039 248.878ZM87.8751 247.032H194.168V179.374C194.168 176.98 192.33 175.032 190.07 175.032H91.9726C89.7134 175.032 87.8751 176.98 87.8748 179.374V247.032H87.8751Z" fill="#283035"/>
<path d="M186.772 183H95V239.615H186.772V183Z" fill="#365C63"/>
<g opacity="0.3">
<path d="M163.505 231.317H148.403C147.922 231.317 147.532 230.904 147.532 230.394C147.532 229.884 147.922 229.471 148.403 229.471H163.505C163.986 229.471 164.376 229.884 164.376 230.394C164.376 230.904 163.986 231.317 163.505 231.317Z" fill="white"/>
</g>
<g opacity="0.3">
<path d="M185.22 212.795C185.818 212.755 186.364 213.155 186.541 213.762V210.238C186.222 210.139 185.891 210.088 185.559 210.086H185.22C184.489 210.086 184.124 210.474 184.124 211.247V211.662C184.124 212.408 184.489 212.795 185.22 212.795Z" fill="white"/>
<path d="M186.541 229.691C186.361 230.294 185.816 230.69 185.22 230.651C184.489 230.651 184.124 231.037 184.124 231.811V232.226C184.124 233 184.49 233.387 185.22 233.387H185.559C185.891 233.385 186.222 233.334 186.541 233.235V229.691Z" fill="white"/>
</g>
<path d="M186.908 240.35H95.1355C94.6543 240.35 94.2642 239.936 94.2642 239.426V182.811C94.2642 182.301 94.6543 181.888 95.1355 181.888H186.908C187.389 181.888 187.779 182.301 187.779 182.811V239.426C187.779 239.936 187.389 240.35 186.908 240.35ZM96.0067 238.503H186.036V183.734H96.0067V238.503Z" fill="#283035"/>
<path d="M75.0827 248H206.962C207.603 248 208.123 248.551 208.123 249.231V250.705C208.123 254.104 205.523 256.859 202.315 256.859H79.7294C76.5214 256.859 73.921 254.104 73.921 250.705V249.231C73.921 248.551 74.4412 248 75.0827 248Z" fill="#E5E5E5"/>
<path d="M202.314 254.088H79.7282C76.8493 254.086 74.4069 251.849 73.9893 248.831C73.9454 248.959 73.9225 249.094 73.921 249.231V250.705C73.921 254.104 76.5214 256.859 79.7294 256.859H202.315C205.523 256.859 208.123 254.104 208.123 250.705V249.231C208.122 249.094 208.099 248.959 208.055 248.831C207.637 251.85 205.194 254.087 202.314 254.088Z" fill="#CFD1D0"/>
<path d="M202.315 257.782H79.7294C76.0463 257.782 73.0498 254.607 73.0498 250.705V249.231C73.0498 248.043 73.9617 247.077 75.0827 247.077H206.962C208.082 247.077 208.995 248.043 208.995 249.231V250.705C208.995 254.607 205.998 257.782 202.315 257.782ZM75.0827 248.923C74.9227 248.923 74.7923 249.061 74.7923 249.231V250.705C74.7923 253.589 77.007 255.936 79.7294 255.936H202.315C205.037 255.936 207.252 253.589 207.252 250.705V249.231C207.252 249.061 207.122 248.923 206.962 248.923H75.0827Z" fill="#283035"/>
<path d="M128.824 247.955H153.219C153.219 249.314 152.179 250.416 150.896 250.416H131.147C129.864 250.416 128.824 249.314 128.824 247.955Z" fill="#686B6D"/>
<path d="M150.896 251.032H131.147C129.546 251.032 128.243 249.652 128.243 247.955C128.243 247.615 128.503 247.34 128.824 247.34H153.219C153.54 247.34 153.8 247.615 153.8 247.955C153.8 249.651 152.497 251.032 150.896 251.032ZM129.505 248.57C129.744 249.287 130.39 249.801 131.147 249.801H150.896C151.653 249.801 152.299 249.287 152.539 248.57H129.505Z" fill="#283035"/>
<path d="M140.793 180.806C142.076 180.806 143.116 179.704 143.116 178.344C143.116 176.985 142.076 175.883 140.793 175.883C139.51 175.883 138.47 176.985 138.47 178.344C138.47 179.704 139.51 180.806 140.793 180.806Z" fill="#686B6D"/>
<path d="M140.793 181.421C139.192 181.421 137.889 180.041 137.889 178.344C137.889 176.648 139.192 175.267 140.793 175.267C142.394 175.267 143.697 176.648 143.697 178.344C143.697 180.041 142.394 181.421 140.793 181.421ZM140.793 176.498C139.832 176.498 139.051 177.326 139.051 178.344C139.051 179.362 139.832 180.19 140.793 180.19C141.754 180.19 142.536 179.362 142.536 178.344C142.536 177.326 141.754 176.498 140.793 176.498Z" fill="#283035"/>
<path d="M214.871 256.791C214.899 251.865 218.69 247.895 223.34 247.923C227.951 247.952 231.682 251.906 231.71 256.791H214.871Z" fill="#E5E5E5"/>
<path d="M223.29 253.974C225.727 253.998 228.053 252.906 229.673 250.978C226.646 247.243 221.335 246.815 217.81 250.022C217.487 250.316 217.185 250.636 216.908 250.978C218.527 252.906 220.854 253.998 223.29 253.974Z" fill="#CFD1D0"/>
<path d="M231.709 257.714H214.871C214.639 257.714 214.417 257.616 214.253 257.442C214.09 257.268 213.999 257.031 214 256.786C214.03 251.378 218.192 247 223.289 247C223.308 247 223.326 247 223.345 247C228.407 247.032 232.551 251.421 232.581 256.786C232.582 257.031 232.491 257.267 232.327 257.442C232.164 257.616 231.941 257.714 231.709 257.714ZM215.798 255.868H230.782C230.325 251.943 227.152 248.87 223.334 248.847C219.478 248.824 216.256 251.897 215.798 255.868Z" fill="#283035"/>
<path opacity="0.14" d="M109.057 190.152H157.004C158.4 190.152 159.531 191.356 159.531 192.841V232.463C159.531 233.948 158.4 235.152 157.004 235.152H109.057C107.662 235.152 106.531 233.948 106.531 232.463V192.841C106.531 191.356 107.662 190.152 109.057 190.152Z" fill="black"/>
<path d="M106.105 188.152H154.957C156.378 188.152 157.531 189.356 157.531 190.841V230.463C157.531 231.948 156.378 233.152 154.957 233.152H106.105C104.683 233.152 103.531 231.948 103.531 230.463V190.841C103.531 189.356 104.683 188.152 106.105 188.152Z" fill="url(#paint1_linear_59_457)"/>
<path d="M154.495 233.477H106.181C104.427 233.477 103 231.966 103 230.107V190.371C103 188.512 104.427 187 106.181 187H154.495C156.249 187 157.676 188.512 157.676 190.371V230.107C157.676 231.966 156.249 233.477 154.495 233.477ZM106.181 188.347C105.128 188.347 104.272 189.255 104.272 190.371V230.107C104.272 231.222 105.128 232.13 106.181 232.13H154.495C155.548 232.13 156.405 231.223 156.405 230.107V190.371C156.405 189.255 155.548 188.347 154.495 188.347H106.181Z" fill="#283035"/>
<path d="M106.104 188.152H154.957C156.378 188.152 157.531 189.227 157.531 190.554V194.152H103.531V190.554C103.531 189.228 104.683 188.152 106.104 188.152Z" fill="#BFBFBF"/>
<path d="M157.041 195.083H103.636C103.285 195.083 103 194.781 103 194.409V190.371C103 188.512 104.427 187 106.181 187H154.495C156.249 187 157.676 188.512 157.676 190.371V194.409C157.676 194.782 157.391 195.083 157.041 195.083ZM104.272 193.736H156.405V190.371C156.405 189.255 155.548 188.347 154.495 188.347H106.181C105.128 188.347 104.272 189.255 104.272 190.371V193.736Z" fill="#283035"/>
<path opacity="0.35" d="M108.531 192.152C109.083 192.152 109.531 191.704 109.531 191.152C109.531 190.6 109.083 190.152 108.531 190.152C107.978 190.152 107.531 190.6 107.531 191.152C107.531 191.704 107.978 192.152 108.531 192.152Z" fill="#283035"/>
<path opacity="0.35" d="M111.531 192.152C112.083 192.152 112.531 191.704 112.531 191.152C112.531 190.6 112.083 190.152 111.531 190.152C110.978 190.152 110.531 190.6 110.531 191.152C110.531 191.704 110.978 192.152 111.531 192.152Z" fill="#283035"/>
<path opacity="0.35" d="M114.531 192.152C115.083 192.152 115.531 191.704 115.531 191.152C115.531 190.6 115.083 190.152 114.531 190.152C113.978 190.152 113.531 190.6 113.531 191.152C113.531 191.704 113.978 192.152 114.531 192.152Z" fill="#283035"/>
<path opacity="0.5" d="M109.622 196.262H106.126V197.272H109.622V196.262Z" fill="white"/>
<path d="M120.431 196.262H110.894V197.272H120.431V196.262Z" fill="white"/>
<path d="M120.431 198.956H106.126V199.967H120.431V198.956Z" fill="white"/>
<path opacity="0.5" d="M115.98 201.651H108.987V202.661H115.98V201.651Z" fill="white"/>
<path opacity="0.5" d="M124.881 201.651H117.252V202.661H124.881V201.651Z" fill="white"/>
<path d="M127.424 204.345H112.801V205.355H127.424V204.345Z" fill="white"/>
<path d="M123.61 207.039H112.801V208.05H123.61V207.039Z" fill="white"/>
<path opacity="0.5" d="M124.881 209.734H108.987V210.744H124.881V209.734Z" fill="white"/>
<path d="M114.709 212.091H106.126V213.102H114.709V212.091Z" fill="white"/>
<g opacity="0.3">
<path d="M175.887 226.314C175.887 225.098 175.443 224.242 174.556 223.717C173.93 223.357 173.669 223.081 173.669 222.445V221.368C173.669 220.622 173.982 220.456 174.53 220.069C175.443 219.655 175.887 218.77 175.887 217.444V215.094C175.887 213.215 176.539 211.833 177.478 211.252C178.181 210.722 179.016 210.423 179.878 210.395H180.217C180.948 210.395 181.313 210.782 181.313 211.556V211.969C181.313 212.715 180.948 213.102 180.217 213.102C179.201 213.102 178.704 213.876 178.704 215.452V218.354C178.757 219.793 178.013 221.132 176.8 221.781L176.565 221.864V221.919C176.833 222.003 177.081 222.144 177.295 222.334C177.948 222.748 178.704 223.716 178.704 225.402V228.636C178.704 230.183 179.2 230.958 180.217 230.958C180.948 230.958 181.313 231.344 181.313 232.118V232.533C181.313 233.307 180.948 233.694 180.217 233.694H179.878C179.016 233.666 178.181 233.368 177.478 232.837C176.539 232.257 175.887 230.847 175.887 228.995V226.314Z" fill="white"/>
</g>
<path d="M297.994 43H138.006C137.612 43 137 42.3285 137 41.5C137 40.6715 137.612 40 138.006 40H297.994C298.388 40 299 40.6715 299 41.5C299 42.3285 298.388 43 297.994 43Z" fill="#3D4A51"/>
<path d="M32 332.327C32 303.818 32 288.182 32 259.673C32 259.336 34.4622 259 37.5 259C40.5378 259 43 259.336 43 259.673L43 332.327C43 332.664 40.5378 333 37.5 333C34.4622 333 32 332.674 32 332.327Z" fill="#283035"/>
<path d="M255 332.336C255 304.213 255 288.787 255 260.664C255 260.332 257.462 260 260.5 260C263.538 260 266 260.332 266 260.664L266 332.336C266 332.668 263.538 333 260.5 333C257.462 333 255 332.678 255 332.336Z" fill="#283035"/>
<path d="M295 264C180.194 264 117.806 264 3 264C1.64545 264 0 262.433 0 260.5C0 258.567 1.64545 257 3 257C117.677 257 180.323 257 295 257C296.355 257 298 258.567 298 260.5C298 262.433 296.397 264 295 264Z" fill="#3D4A51"/>
<path d="M167.26 103.823C167.877 99.797 165.297 96.0038 161.497 95.3504C157.697 94.697 154.117 97.4309 153.5 101.457C152.884 105.483 155.464 109.276 159.264 109.929C163.064 110.582 166.644 107.849 167.26 103.823Z" fill="#FFE1B7" fill-opacity="0.6"/>
<path d="M140.368 104.308C138.984 104.303 137.865 103.11 137.87 101.643C137.87 101.537 137.877 101.431 137.889 101.326C139.244 89.1384 148.795 79.6923 160.377 79.6923C171.959 79.6923 181.51 89.1384 182.865 101.326C183.035 102.781 182.059 104.107 180.685 104.288C180.585 104.301 180.485 104.307 180.385 104.308H140.368Z" fill="#3D4A51"/>
<path d="M164.057 80.2905C163.982 80.2778 163.906 80.2689 163.831 80.2572C163.567 80.216 163.302 80.1788 163.035 80.1474C162.913 80.1329 162.792 80.1212 162.67 80.1089C162.448 80.0868 162.227 80.0668 162.005 80.0532C161.876 80.0452 161.748 80.0351 161.619 80.0286C161.272 80.0114 160.922 80 160.573 80C160.225 80 159.876 80.0111 159.531 80.0286C159.372 80.0366 159.213 80.0498 159.055 80.0612C158.884 80.0738 158.712 80.0868 158.542 80.1037C158.333 80.1237 158.125 80.1477 157.917 80.1742C157.816 80.1871 157.714 80.2015 157.614 80.216C147.152 81.7 138.932 90.9348 138.007 102.446C137.916 103.543 138.681 104.51 139.716 104.608C139.77 104.613 139.824 104.615 139.878 104.615H181.268C182.302 104.618 183.143 103.733 183.146 102.637C183.146 102.584 183.144 102.531 183.14 102.479C182.244 91.1446 174.278 82.0055 164.057 80.2905ZM145.768 97.8243C147.773 90.1043 153.226 83.9178 160.358 81.2705C167.497 83.9126 172.957 90.1 174.965 97.8243C175.415 99.5898 174.43 101.408 172.763 101.885C172.494 101.962 172.216 102.001 171.937 102H148.795C147.069 102.006 145.665 100.529 145.659 98.7003C145.658 98.4046 145.695 98.1098 145.768 97.8243Z" fill="#283035"/>
<path d="M140.388 105.231C140.387 105.231 140.386 105.231 140.385 105.231C139.478 105.228 138.627 104.852 137.988 104.17C137.348 103.489 136.997 102.585 137 101.624C137 101.48 137.009 101.334 137.026 101.191C138.457 88.4108 148.496 78.7693 160.377 78.7693C172.258 78.7693 182.297 88.4108 183.728 101.196C183.839 102.145 183.594 103.087 183.036 103.845C182.479 104.602 181.676 105.085 180.776 105.203C180.641 105.221 180.504 105.23 180.368 105.231H140.388ZM140.388 103.385H180.365C180.429 103.385 180.496 103.38 180.562 103.371C181 103.314 181.39 103.079 181.662 102.71C181.933 102.342 182.052 101.883 181.998 101.419C180.671 89.5566 171.376 80.6154 160.377 80.6154C149.379 80.6154 140.083 89.5569 138.755 101.414C138.747 101.489 138.743 101.559 138.742 101.629C138.741 102.097 138.912 102.537 139.223 102.869C139.534 103.2 139.947 103.383 140.388 103.385H140.388V103.385Z" fill="#283035"/>
<path d="M162 43H159V79H162V43Z" fill="#A8B6BD"/>
<path d="M46.3675 213C43.1501 213 40.2518 214.256 38.206 216.535C36.1085 218.872 35 222.119 35 225.925V239L37.1488 238.274C41.2508 236.889 44.2354 234.698 46.0195 231.761C47.3522 229.567 48 227.037 48 224.026V213H46.3675Z" fill="#0F8357"/>
<path d="M37.0482 212.402C35.1638 210.208 32.4943 209 29.5313 209H28V222.782C28 227.301 29.1762 232.418 37.9 236.111L40 237V221.431C40 217.772 38.9793 214.65 37.0482 212.402Z" fill="#70C862"/>
<path d="M37.2263 212.544C36.3226 211.431 35.2264 210.573 34 210V233.823C35.1029 234.631 36.4297 235.401 38.0267 236.116L40 237V221.521C39.9999 217.883 39.0408 214.779 37.2263 212.544Z" fill="#14B87A"/>
<path d="M29.7941 217.612C27.7483 215.283 24.8499 214 21.6326 214H20V224.701C20 227.778 20.6479 230.362 21.9805 232.604C23.7646 235.604 26.7491 237.844 30.8511 239.259L33 240V227.205C33.0001 223.317 31.8914 220 29.7941 217.612Z" fill="#8DD382"/>
<path d="M41.4999 218C39.0936 218 36.9237 218.947 35.3901 220.667C33.8264 222.42 33 224.847 33 227.684V240L34.9744 239.329C37.9986 238.301 40.2034 236.668 41.5274 234.475C42.5183 232.833 43 230.946 43 228.704V218H41.4999Z" fill="#70C862"/>
<path d="M27.5698 220H26V229.712C26 231.095 26.1386 232.911 27.2191 234.695C28.3092 236.496 30.1501 237.931 32.8472 239.081L35 240V228.819C34.9999 223.627 31.9446 220 27.5698 220Z" fill="#14B87A"/>
<path d="M20 235L20.9646 251.823C21.1311 254.726 23.4818 257 26.3164 257H40.6837C43.5182 257 45.8689 254.726 46.0354 251.823L47 235H20Z" fill="#3D4A51"/>
<path d="M34 235V257H40.9176C43.6472 257 45.9108 254.726 46.0711 251.823L47 235H34Z" fill="#3D4A51"/>
<path d="M20.9801 251.873C21.1494 254.748 23.5378 257 26.4177 257H41.0148C43.8948 257 46.2831 254.748 46.4521 251.873L46.8555 245.017H20.5769L20.9801 251.873Z" fill="#A8B6BD"/>
<path d="M47.4322 235.213H20.0002L20.3846 241.749H47.0478L47.4322 235.213Z" fill="#A8B6BD"/>
<path d="M33.7161 235.213V241.749H47.0478L47.4322 235.213H33.7161Z" fill="#A8B6BD"/>
<path d="M33.7161 245.017V257H41.0147C43.8947 257 46.283 254.748 46.452 251.873L46.8554 245.017H33.7161Z" fill="#A8B6BD"/>
<path d="M265.879 224.507C265.821 224.507 265.761 224.5 265.701 224.487C265.234 224.383 264.935 223.898 265.033 223.403L266.725 214.863C266.794 214.513 267.05 214.237 267.379 214.158L276.27 212.023C276.735 211.911 277.198 212.22 277.303 212.713C277.409 213.206 277.117 213.696 276.652 213.808L268.301 215.814L266.724 223.779C266.639 224.21 266.279 224.507 265.879 224.507Z" fill="#283035"/>
<path d="M259.271 256H269.728C270.479 256 271.112 255.399 271.207 254.598L274 231H255L257.793 254.598C257.888 255.399 258.521 256 259.271 256Z" fill="#7AADB8"/>
<path d="M257.866 232L260.051 253.794C260.144 254.723 260.862 255.426 261.717 255.426H271L270.98 255.598C270.886 256.399 270.262 257 269.522 257H259.212C258.472 257 257.848 256.399 257.754 255.598L255 232H257.866Z" fill="#365C63"/>
<path d="M270.196 257H259.593H259.592C258.509 256.999 257.588 256.14 257.451 255.001L254.619 231.457C254.595 231.262 254.652 231.065 254.775 230.917C254.898 230.769 255.075 230.684 255.261 230.684H274.528C274.714 230.684 274.891 230.768 275.014 230.917C275.137 231.065 275.194 231.262 275.171 231.457L272.339 255.001C272.202 256.141 271.281 257 270.196 257ZM259.593 255.627H270.196C270.63 255.627 270.999 255.284 271.053 254.828L273.793 232.057H255.997L258.737 254.828C258.792 255.283 259.16 255.627 259.593 255.627Z" fill="#283035"/>
<path d="M273.667 249L275 238H255L256.333 249H273.667Z" fill="#737373"/>
<path d="M273.8 249L275 238H257L258.105 248.127C258.16 248.625 258.541 249 258.994 249H273.8Z" fill="#E6E6E6"/>
<path d="M273.802 250.222H255.988C255.662 250.222 255.386 249.965 255.345 249.622L253.975 238.235C253.952 238.04 254.009 237.843 254.132 237.695C254.255 237.547 254.432 237.462 254.618 237.462H275.172C275.358 237.462 275.535 237.547 275.658 237.695C275.781 237.843 275.838 238.04 275.814 238.235L274.444 249.622C274.403 249.965 274.128 250.222 273.802 250.222ZM256.558 248.849H273.231L274.436 238.835H255.354L256.558 248.849Z" fill="#283035"/>
<g clip-path="url(#clip1_59_457)">
<path fill-rule="evenodd" clip-rule="evenodd" d="M266.906 240.875C266.961 240.894 267.013 240.923 267.057 240.961C267.101 241 267.138 241.047 267.164 241.099C267.19 241.151 267.206 241.208 267.21 241.267C267.214 241.325 267.207 241.384 267.188 241.44L265.403 246.794C265.366 246.906 265.286 246.999 265.18 247.052C265.074 247.105 264.951 247.114 264.839 247.076C264.727 247.039 264.634 246.958 264.581 246.853C264.528 246.747 264.519 246.624 264.557 246.512L266.341 241.158C266.36 241.102 266.389 241.051 266.427 241.006C266.466 240.962 266.513 240.926 266.565 240.9C266.617 240.873 266.675 240.858 266.733 240.854C266.791 240.849 266.85 240.857 266.906 240.875ZM263.957 242.322C264.041 242.405 264.088 242.519 264.088 242.637C264.088 242.756 264.041 242.869 263.957 242.953L262.934 243.976L263.957 244.999C264 245.04 264.034 245.089 264.057 245.144C264.08 245.198 264.093 245.257 264.093 245.316C264.094 245.375 264.082 245.434 264.06 245.489C264.038 245.544 264.004 245.593 263.963 245.635C263.921 245.677 263.871 245.71 263.816 245.733C263.761 245.755 263.702 245.766 263.643 245.766C263.584 245.765 263.525 245.753 263.471 245.73C263.416 245.706 263.367 245.672 263.326 245.63L261.988 244.291C261.904 244.208 261.857 244.094 261.857 243.976C261.857 243.857 261.904 243.744 261.988 243.66L263.326 242.322C263.41 242.238 263.523 242.191 263.642 242.191C263.76 242.191 263.873 242.238 263.957 242.322ZM267.788 242.322C267.871 242.238 267.985 242.191 268.103 242.191C268.222 242.191 268.335 242.238 268.419 242.322L269.757 243.66C269.841 243.744 269.888 243.857 269.888 243.976C269.888 244.094 269.841 244.208 269.757 244.291L268.419 245.63C268.378 245.672 268.328 245.706 268.274 245.73C268.219 245.753 268.161 245.765 268.102 245.766C268.042 245.766 267.984 245.755 267.929 245.733C267.874 245.71 267.824 245.677 267.782 245.635C267.74 245.593 267.707 245.544 267.685 245.489C267.662 245.434 267.651 245.375 267.652 245.316C267.652 245.257 267.664 245.198 267.688 245.144C267.711 245.089 267.745 245.04 267.788 244.999L268.811 243.976L267.788 242.953C267.704 242.869 267.657 242.756 267.657 242.637C267.657 242.519 267.704 242.405 267.788 242.322Z" fill="#283035"/>
</g>
<path d="M275.669 232H254.331C253.044 232 252 230.657 252 229C252 227.343 253.044 226 254.331 226H275.669C276.956 226 278 227.343 278 229C278 230.657 276.956 232 275.669 232Z" fill="#737373"/>
<path d="M276.179 231H256.821C255.815 231 255 229.881 255 228.5C255 227.119 255.815 226 256.821 226H276.179C277.185 226 278 227.119 278 228.5C278 229.881 277.185 231 276.179 231Z" fill="#E6E6E6"/>
<path d="M275.766 232.057H254.023C252.356 232.057 251 230.62 251 228.854C251 227.087 252.356 225.65 254.023 225.65H275.766C277.433 225.65 278.79 227.087 278.79 228.854C278.79 230.62 277.433 232.057 275.766 232.057ZM254.023 227.023C253.071 227.023 252.296 227.844 252.296 228.854C252.296 229.863 253.071 230.684 254.023 230.684H275.766C276.719 230.684 277.494 229.863 277.494 228.854C277.494 227.844 276.719 227.023 275.766 227.023H254.023Z" fill="#283035"/>
<path d="M256 226H273L272.664 224H256.337L256 226Z" fill="#E6E6E6"/>
<path d="M256.379 224H262L260.67 226H256L256.379 224Z" fill="#737373"/>
<path d="M273.533 227.023H256.256C256.069 227.023 255.892 226.938 255.769 226.789C255.646 226.641 255.589 226.443 255.614 226.247L255.956 223.502C255.998 223.16 256.273 222.905 256.598 222.905H273.191C273.516 222.905 273.791 223.16 273.833 223.502L274.175 226.247C274.2 226.443 274.143 226.641 274.02 226.789C273.897 226.938 273.72 227.023 273.533 227.023ZM256.995 225.65H272.794L272.623 224.278H257.166L256.995 225.65Z" fill="#283035"/>
<path d="M180.85 13.75C179.361 13.7387 177.937 13.1411 176.888 12.0875C175.839 11.0338 175.25 9.60948 175.25 8.12499C175.25 6.6405 175.839 5.21621 176.888 4.16254C177.937 3.10887 179.361 2.51127 180.85 2.5H212.75V13.75H180.85Z" fill="#CECECE"/>
<path d="M181.119 0H212.75V15H181.119C179.231 15 177.42 14.2099 176.085 12.8034C174.75 11.3969 174 9.48925 174 7.50017C174 6.51525 174.184 5.53996 174.542 4.63C174.9 3.72004 175.424 2.89323 176.085 2.19678C176.746 1.50032 177.531 0.94785 178.395 0.570927C179.258 0.194005 180.184 -9.03882e-10 181.119 0Z" fill="white"/>
<path d="M212.081 6.25H177.169C176.992 6.25 176.821 6.18414 176.696 6.06693C176.57 5.94972 176.5 5.79076 176.5 5.625C176.5 5.45924 176.57 5.30026 176.696 5.18305C176.821 5.06584 176.992 5 177.169 5H212.081C212.258 5 212.429 5.06584 212.554 5.18305C212.68 5.30026 212.75 5.45924 212.75 5.625C212.75 5.79076 212.68 5.94972 212.554 6.06693C212.429 6.18414 212.258 6.25 212.081 6.25Z" fill="#283035"/>
<path d="M212.058 10H175.942C175.758 10 175.582 9.93414 175.453 9.81693C175.323 9.69972 175.25 9.54076 175.25 9.375C175.25 9.20924 175.323 9.05026 175.453 8.93305C175.582 8.81584 175.758 8.75 175.942 8.75H212.058C212.242 8.75 212.418 8.81584 212.547 8.93305C212.677 9.05026 212.75 9.20924 212.75 9.375C212.75 9.54076 212.677 9.69972 212.547 9.81693C212.418 9.93414 212.242 10 212.058 10Z" fill="#283035"/>
<path d="M212.121 13.75H181.29C179.684 13.7393 178.148 13.142 177.016 12.0883C175.885 11.0345 175.25 9.60987 175.25 8.12499C175.25 6.64012 175.885 5.21547 177.016 4.16174C178.148 3.10801 179.684 2.51068 181.29 2.5H212.121C212.288 2.5 212.448 2.56127 212.566 2.67034C212.684 2.77942 212.75 2.92737 212.75 3.08162V13.1684C212.75 13.3226 212.684 13.4706 212.566 13.5796C212.448 13.6887 212.288 13.75 212.121 13.75ZM181.29 3.66207C180.017 3.67157 178.799 4.14585 177.903 4.98156C177.006 5.81727 176.503 6.94671 176.503 8.12384C176.503 9.30097 177.006 10.4304 177.903 11.2661C178.799 12.1018 180.017 12.5761 181.29 12.5856H211.492V3.66207H181.29Z" fill="#283035"/>
<path d="M181.464 14.1615C180 14.1494 178.601 13.5081 177.57 12.3774C176.539 11.2466 175.96 9.71808 175.96 8.12499C175.96 6.5319 176.539 5.0034 177.57 3.87264C178.601 2.74188 180 2.10056 181.464 2.08847H213.346L214.625 0H181.464C179.484 0 177.586 0.856012 176.186 2.37971C174.786 3.90341 174 5.96998 174 8.12482C174 9.19182 174.193 10.2484 174.568 11.2342C174.943 12.22 175.493 13.1157 176.186 13.8702C176.879 14.6247 177.702 15.2232 178.607 15.6315C179.513 16.0398 180.484 16.25 181.464 16.25H214.625L213.346 14.1615H181.464Z" fill="#EB6347"/>
<path d="M214.601 16.25H180.927C178.754 16.2365 176.674 15.3746 175.142 13.8523C173.61 12.33 172.75 10.2711 172.75 8.12499C172.75 5.97891 173.61 3.91998 175.142 2.39771C176.674 0.875439 178.754 0.0134808 180.927 0H214.601C214.718 2.13174e-05 214.834 0.0315324 214.934 0.0911689C215.035 0.150805 215.118 0.236325 215.173 0.33863C215.229 0.440935 215.255 0.556192 215.249 0.672094C215.244 0.787996 215.206 0.900208 215.141 0.996772L213.842 2.92042C213.783 3.00827 213.703 3.0803 213.608 3.13013C213.514 3.17997 213.409 3.20606 213.302 3.20608H180.927C179.613 3.21655 178.356 3.73941 177.43 4.66075C176.505 5.58209 175.985 6.82725 175.985 8.12499C175.985 9.42273 176.505 10.6679 177.43 11.5893C178.356 12.5106 179.613 13.0334 180.927 13.0439H213.302C213.409 13.0439 213.514 13.07 213.608 13.1199C213.703 13.1697 213.783 13.2417 213.842 13.3296L215.141 15.2532C215.206 15.3498 215.244 15.462 215.249 15.5779C215.255 15.6938 215.229 15.8091 215.173 15.9114C215.118 16.0137 215.035 16.0992 214.934 16.1588C214.834 16.2185 214.718 16.25 214.601 16.25ZM180.927 1.28114C179.097 1.29351 177.347 2.01988 176.058 3.30177C174.768 4.58365 174.045 6.31703 174.045 8.12372C174.045 9.93041 174.768 11.6638 176.058 12.9457C177.347 14.2276 179.097 14.9539 180.927 14.9663H213.389L212.956 14.3251H180.927C179.269 14.3133 177.683 13.6548 176.515 12.4931C175.347 11.3314 174.692 9.76074 174.692 8.12372C174.692 6.4867 175.347 4.91608 176.515 3.75438C177.683 2.59268 179.269 1.93412 180.927 1.92235H212.956L213.389 1.28114H180.927Z" fill="#283035"/>
<path d="M219.34 15H158.66C157.467 15 156.5 16.0795 156.5 17.4111V26.3389C156.5 27.6705 157.467 28.75 158.66 28.75H219.34C220.533 28.75 221.5 27.6705 221.5 26.3389V17.4111C221.5 16.0795 220.533 15 219.34 15Z" fill="url(#paint2_linear_59_457)"/>
<path d="M219.899 28.75H158.101C157.345 28.7491 156.621 28.4507 156.086 27.92C155.552 27.3893 155.251 26.6699 155.25 25.9194V17.8306C155.251 17.0801 155.552 16.3607 156.086 15.83C156.621 15.2993 157.345 15.0009 158.101 15H219.899C220.655 15.0009 221.38 15.2994 221.914 15.83C222.448 16.3607 222.749 17.0802 222.75 17.8306V25.9194C222.749 26.6698 222.448 27.3893 221.914 27.92C221.38 28.4506 220.655 28.7491 219.899 28.75ZM158.101 16.2924C157.691 16.2928 157.297 16.455 157.006 16.7434C156.716 17.0318 156.552 17.4228 156.552 17.8306V25.9194C156.552 26.3272 156.716 26.7182 157.006 27.0066C157.297 27.295 157.691 27.4572 158.101 27.4576H219.899C220.31 27.4571 220.703 27.2949 220.994 27.0065C221.284 26.7181 221.448 26.3272 221.448 25.9194V17.8306C221.448 17.4228 221.284 17.0319 220.994 16.7435C220.703 16.4551 220.31 16.2929 219.899 16.2924H158.101Z" fill="#283035"/>
<path d="M229 30H156.5C157.393 32.4201 157.393 35.0799 156.5 37.5H229C228.108 35.0799 228.108 32.4201 229 30Z" fill="#CECECE"/>
<path d="M230.25 28.75H155.25V30H230.25V28.75Z" fill="url(#paint3_linear_59_457)"/>
<path d="M230.843 31.25H154.657C154.483 31.25 154.316 31.1713 154.192 31.0313C154.069 30.8913 154 30.7013 154 30.5033V28.2467C154 28.0487 154.069 27.8587 154.192 27.7187C154.316 27.5787 154.483 27.5 154.657 27.5H230.843C231.017 27.5 231.184 27.5787 231.308 27.7187C231.431 27.8587 231.5 28.0487 231.5 28.2467V30.5033C231.5 30.7013 231.431 30.8913 231.308 31.0313C231.184 31.1713 231.017 31.25 230.843 31.25ZM155.314 29.7566H230.186V28.9934H155.314V29.7566Z" fill="#283035"/>
<path d="M227.75 35H157.75V35.625H227.75V35Z" fill="#283035"/>
<path d="M230.25 37.5H155.25V40H230.25V37.5Z" fill="url(#paint4_linear_59_457)"/>
<path d="M230.843 40H154.657C154.483 40 154.316 39.9476 154.192 39.8542C154.069 39.7609 154 39.6343 154 39.5023V37.9977C154 37.8657 154.069 37.7391 154.192 37.6458C154.316 37.5524 154.483 37.5 154.657 37.5H230.843C231.017 37.5 231.184 37.5524 231.308 37.6458C231.431 37.7391 231.5 37.8657 231.5 37.9977V39.5016C231.5 39.567 231.483 39.6318 231.45 39.6923C231.417 39.7527 231.369 39.8077 231.308 39.854C231.247 39.9003 231.174 39.937 231.095 39.962C231.015 39.9871 230.929 40 230.843 40ZM155.314 39.0047H230.186V38.4953H155.314V39.0047Z" fill="#283035"/>
<path d="M227.112 33.75H158.388C158.219 33.75 158.056 33.6842 157.937 33.567C157.817 33.4497 157.75 33.2908 157.75 33.125C157.75 32.9592 157.817 32.8003 157.937 32.6831C158.056 32.5659 158.219 32.5 158.388 32.5H227.112C227.281 32.5 227.444 32.5659 227.563 32.6831C227.683 32.8003 227.75 32.9592 227.75 33.125C227.75 33.2908 227.683 33.4497 227.563 33.567C227.444 33.6842 227.281 33.75 227.112 33.75Z" fill="#283035"/>
<path d="M228.353 38.125H157.147C157.042 38.125 156.938 38.1007 156.845 38.0544C156.751 38.008 156.671 37.9408 156.612 37.8588C156.553 37.7768 156.516 37.6824 156.504 37.5838C156.492 37.4852 156.507 37.3855 156.545 37.2932C157.362 35.2076 157.362 32.9171 156.545 30.8315C156.507 30.7393 156.492 30.6395 156.504 30.541C156.516 30.4425 156.553 30.3481 156.612 30.2661C156.672 30.1842 156.751 30.117 156.845 30.0707C156.938 30.0243 157.042 30 157.147 30H228.353C228.458 30 228.562 30.0243 228.655 30.0707C228.749 30.117 228.828 30.1841 228.888 30.266C228.947 30.348 228.984 30.4423 228.996 30.5408C229.008 30.6393 228.993 30.739 228.955 30.8312C228.139 32.9171 228.139 35.2076 228.955 37.2935C228.994 37.3857 229.008 37.4855 228.996 37.584C228.984 37.6826 228.947 37.7769 228.888 37.8589C228.828 37.9409 228.749 38.008 228.655 38.0544C228.562 38.1007 228.458 38.125 228.353 38.125ZM158.047 36.9085H227.453C226.913 35.0451 226.913 33.0799 227.453 31.2165H158.047C158.587 33.0799 158.587 35.0451 158.047 36.9085Z" fill="#283035"/>
</g>
<defs>
<linearGradient id="paint0_linear_59_457" x1="160.5" y1="101.873" x2="160.5" y2="262.4" gradientUnits="userSpaceOnUse">
<stop stop-color="white"/>
<stop offset="0.093" stop-color="white" stop-opacity="0.864"/>
<stop offset="0.284" stop-color="white" stop-opacity="0.605"/>
<stop offset="0.466" stop-color="white" stop-opacity="0.389"/>
<stop offset="0.633" stop-color="white" stop-opacity="0.221"/>
<stop offset="0.784" stop-color="white" stop-opacity="0.1"/>
<stop offset="0.911" stop-color="white" stop-opacity="0.026"/>
<stop offset="1" stop-color="white" stop-opacity="0"/>
</linearGradient>
<linearGradient id="paint1_linear_59_457" x1="157.707" y1="188.561" x2="120.264" y2="236.264" gradientUnits="userSpaceOnUse">
<stop offset="0.3125" stop-color="#EB6347"/>
<stop offset="1" stop-color="#365C63"/>
</linearGradient>
<linearGradient id="paint2_linear_59_457" x1="174.211" y1="28.75" x2="177.286" y2="9.8646" gradientUnits="userSpaceOnUse">
<stop stop-color="#243D42"/>
<stop offset="1" stop-color="#5999A6"/>
</linearGradient>
<linearGradient id="paint3_linear_59_457" x1="193.688" y1="30.1875" x2="193.688" y2="28.75" gradientUnits="userSpaceOnUse">
<stop stop-color="white"/>
<stop offset="1" stop-color="#FFD499"/>
</linearGradient>
<linearGradient id="paint4_linear_59_457" x1="193.688" y1="40.375" x2="193.688" y2="37.5" gradientUnits="userSpaceOnUse">
<stop stop-color="white"/>
<stop offset="1" stop-color="#FFD499"/>
</linearGradient>
<clipPath id="clip0_59_457">
<rect width="298" height="330" fill="white"/>
</clipPath>
<clipPath id="clip1_59_457">
<rect width="8.92348" height="8.92348" fill="white" transform="translate(261.411 239.514)"/>
</clipPath>
</defs>
</svg>
