<svg width="257" height="122" viewBox="0 0 257 122" fill="none" xmlns="http://www.w3.org/2000/svg">
<path d="M254.22 115H2.77951C1.24443 115 0 116.567 0 118.5C0 120.433 1.24443 122 2.77951 122H254.22C255.756 122 257 120.433 257 118.5C257 116.567 255.756 115 254.22 115Z" fill="#3D4A51"/>
<path d="M146.456 114.699H104.209V117.253H146.456V114.699Z" fill="#283035"/>
<path d="M187.554 6H64.4459C61.9905 6 60 8.00565 60 10.4797V93.5203C60 95.9943 61.9905 98 64.4459 98H187.554C190.01 98 192 95.9943 192 93.5203V10.4797C192 8.00565 190.01 6 187.554 6Z" fill="#E6E6E6"/>
<path d="M68 14V82H184V14H68Z" fill="url(#paint0_linear_29_1316)"/>
<g style="mix-blend-mode:multiply" opacity="0.4">
<path d="M73.2807 69.6046H65.6862V92.1653C65.6862 94.9864 68.0967 97.2737 70.8966 97.2737H79.6266V76.1028C79.6278 72.585 76.7721 69.6046 73.2807 69.6046Z" fill="#999999"/>
</g>
<path d="M187.8 99H64.2002C62.8215 98.9985 61.4996 98.4444 60.5247 97.4593C59.5498 96.4742 59.0015 95.1385 59 93.7453V10.2547C59.0015 8.86153 59.5498 7.52584 60.5247 6.54071C61.4996 5.55559 62.8215 5.00149 64.2002 5H187.8C189.179 5.00149 190.5 5.55559 191.475 6.54071C192.45 7.52584 192.999 8.86153 193 10.2547V93.7453C192.999 95.1385 192.45 96.4742 191.475 97.4593C190.5 98.4444 189.179 98.9985 187.8 99ZM64.2002 6.50135C63.2154 6.50244 62.2713 6.89822 61.5749 7.60188C60.8786 8.30554 60.4869 9.25959 60.4858 10.2547V93.7453C60.4869 94.7404 60.8786 95.6945 61.5749 96.3981C62.2713 97.1018 63.2154 97.4976 64.2002 97.4987H187.8C188.785 97.4976 189.729 97.1018 190.425 96.3981C191.121 95.6945 191.513 94.7404 191.514 93.7453V10.2547C191.513 9.25959 191.121 8.30554 190.425 7.60188C189.729 6.89822 188.785 6.50244 187.8 6.50135H64.2002Z" fill="#283035"/>
<path d="M184.252 83H67.7476C67.5493 83 67.3592 82.9205 67.219 82.7791C67.0788 82.6377 67 82.4459 67 82.2459V13.7541C67 13.5541 67.0788 13.3623 67.219 13.2209C67.3592 13.0794 67.5493 13 67.7476 13H184.252C184.451 13 184.641 13.0794 184.781 13.2209C184.921 13.3623 185 13.5541 185 13.7541V82.2459C185 82.4459 184.921 82.6377 184.781 82.7791C184.641 82.9205 184.451 83 184.252 83ZM68.4951 81.4918H183.505V14.5082H68.4951V81.4918Z" fill="#283035"/>
<path d="M138.736 114.699H113.62L116.73 98.0972H135.626L138.736 114.699Z" fill="#999999"/>
<g style="mix-blend-mode:multiply" opacity="0.32">
<path d="M136.474 102.78L135.626 98.0972H116.73L115.882 102.78H136.474Z" fill="#999999"/>
</g>
<path d="M138.736 115.303H113.62C113.532 115.303 113.444 115.284 113.365 115.246C113.285 115.208 113.214 115.153 113.158 115.084C113.102 115.016 113.061 114.936 113.039 114.85C113.017 114.764 113.014 114.674 113.03 114.587L116.14 97.9851C116.166 97.8467 116.239 97.7217 116.347 97.6318C116.454 97.5419 116.59 97.4927 116.73 97.4927H135.627C135.766 97.4928 135.902 97.542 136.009 97.6319C136.117 97.7218 136.19 97.8467 136.216 97.9851L139.326 114.587C139.342 114.674 139.339 114.764 139.317 114.85C139.295 114.936 139.255 115.016 139.198 115.084C139.142 115.153 139.071 115.208 138.992 115.246C138.912 115.284 138.825 115.303 138.736 115.303H138.736ZM114.344 114.094H138.012L135.128 98.7018H117.227L114.344 114.094Z" fill="#283035"/>
<path d="M146.457 117.857H104.209C104.05 117.857 103.897 117.793 103.785 117.68C103.672 117.567 103.609 117.413 103.609 117.253V114.699C103.609 114.538 103.672 114.385 103.785 114.271C103.897 114.158 104.05 114.094 104.209 114.094H146.457C146.616 114.094 146.768 114.158 146.881 114.271C146.993 114.385 147.057 114.538 147.057 114.699V117.253C147.057 117.413 146.993 117.567 146.881 117.68C146.768 117.793 146.616 117.857 146.457 117.857ZM104.809 116.648H145.857V115.303H104.809L104.809 116.648Z" fill="#283035"/>
<path d="M126.022 92.3837C127.056 92.3837 127.894 91.5392 127.894 90.4975C127.894 89.4558 127.056 88.6113 126.022 88.6113C124.988 88.6113 124.15 89.4558 124.15 90.4975C124.15 91.5392 124.988 92.3837 126.022 92.3837Z" fill="#283035"/>
<path d="M43.9171 103.486H19.7281C19.4405 103.483 19.162 103.587 18.9448 103.776L13.1092 108.929C12.9819 109.041 12.88 109.18 12.8101 109.335C12.7403 109.49 12.7042 109.658 12.7042 109.829C12.7042 109.999 12.7403 110.167 12.8101 110.322C12.88 110.477 12.9819 110.616 13.1092 110.728L18.9463 115.96C19.1561 116.173 19.4333 116.304 19.7296 116.333H43.9186C45.2881 116.333 46.4239 115.061 46.4239 113.681V105.973C46.4182 105.308 46.151 104.673 45.681 104.207C45.211 103.741 44.5766 103.481 43.9171 103.486ZM19.0942 111.325C18.7999 111.325 18.5123 111.237 18.2676 111.073C18.023 110.908 17.8323 110.674 17.7197 110.4C17.6071 110.126 17.5776 109.825 17.6351 109.534C17.6925 109.243 17.8341 108.976 18.0422 108.766C18.2503 108.557 18.5153 108.414 18.8039 108.356C19.0925 108.298 19.3916 108.328 19.6635 108.441C19.9353 108.555 20.1677 108.747 20.3311 108.993C20.4946 109.24 20.5819 109.53 20.5819 109.826C20.5818 110.224 20.425 110.605 20.146 110.886C19.8671 111.167 19.4887 111.325 19.0942 111.325Z" fill="#283035"/>
<path d="M32.3298 103.486H25.2838V116.333H32.3298V103.486Z" fill="#F5B1A3"/>
<path d="M39.3759 103.486H32.3298V116.333H39.3759V103.486Z" fill="#F08A75"/>
<path d="M39.3762 103.486H43.3995C44.2013 103.486 44.9702 103.807 45.5372 104.378C46.1041 104.949 46.4226 105.724 46.4226 106.532V113.173C46.4226 114.011 46.0922 114.815 45.5041 115.407C44.9159 116 44.1182 116.333 43.2864 116.333H39.3762V103.486V103.486Z" fill="#EB6347"/>
<g style="mix-blend-mode:multiply" opacity="0.4">
<path d="M44.5822 104.114C44.4612 104.097 44.3392 104.089 44.2171 104.09H20.0281C19.7405 104.088 19.462 104.191 19.2448 104.381L13.4092 109.534C13.2819 109.646 13.18 109.784 13.1101 109.939C13.0403 110.094 13.0042 110.263 13.0042 110.433C13.0042 110.603 13.0403 110.772 13.1101 110.927C13.18 111.082 13.2819 111.22 13.4092 111.332L17.0548 114.552L21.0178 115.563C21.5886 115.708 22.1924 115.64 22.717 115.37L44.2624 104.298C44.3731 104.24 44.4796 104.18 44.5822 104.114ZM19.3942 111.93C19.0999 111.93 18.8123 111.842 18.5676 111.677C18.323 111.512 18.1323 111.278 18.0197 111.004C17.9071 110.73 17.8776 110.429 17.935 110.138C17.9924 109.848 18.1341 109.58 18.3422 109.371C18.5502 109.161 18.8153 109.018 19.1039 108.961C19.3925 108.903 19.6916 108.932 19.9635 109.046C20.2353 109.159 20.4677 109.351 20.6311 109.598C20.7946 109.844 20.8819 110.134 20.8819 110.431C20.8818 110.828 20.725 111.209 20.446 111.491C20.167 111.772 19.7887 111.93 19.3942 111.93Z" fill="#999999"/>
</g>
<path d="M43.917 116.937H19.7278C19.2845 116.915 18.8649 116.728 18.5491 116.414L12.709 111.179C12.5182 111.01 12.3654 110.802 12.2609 110.569C12.1563 110.336 12.1024 110.082 12.1027 109.826C12.1029 109.57 12.1574 109.317 12.2625 109.084C12.3676 108.851 12.5208 108.643 12.712 108.475L18.5494 103.322C18.876 103.036 19.2949 102.879 19.7278 102.881H43.917C44.7353 102.877 45.5217 103.2 46.1039 103.779C46.686 104.359 47.0163 105.147 47.0224 105.972V113.68C47.0224 115.416 45.5712 116.937 43.917 116.937ZM19.7278 104.091C19.586 104.089 19.4484 104.139 19.3405 104.231L13.5028 109.384C13.4399 109.44 13.3895 109.508 13.355 109.585C13.3204 109.661 13.3026 109.745 13.3026 109.829C13.3026 109.913 13.3204 109.996 13.355 110.073C13.3895 110.15 13.4399 110.218 13.5028 110.274L19.3432 115.509C19.4466 115.619 19.5805 115.695 19.7275 115.728H43.9168C44.914 115.728 45.8221 114.753 45.8221 113.681V105.973C45.816 105.47 45.6122 104.989 45.2551 104.636C44.898 104.284 44.4167 104.088 43.9168 104.092L19.7278 104.091ZM19.0942 111.93C18.6812 111.93 18.2775 111.807 17.934 111.576C17.5906 111.344 17.323 111.016 17.1649 110.632C17.0068 110.247 16.9654 109.824 17.0459 109.416C17.1265 109.008 17.3253 108.633 17.6173 108.339C17.9093 108.044 18.2814 107.844 18.6864 107.763C19.0914 107.682 19.5113 107.723 19.8928 107.882C20.2744 108.042 20.6005 108.311 20.8299 108.657C21.0594 109.003 21.1819 109.41 21.1819 109.826C21.1812 110.384 20.9611 110.919 20.5697 111.313C20.1783 111.707 19.6477 111.929 19.0942 111.93ZM19.0942 108.932C18.9185 108.932 18.7468 108.984 18.6007 109.082C18.4546 109.181 18.3408 109.32 18.2735 109.484C18.2063 109.647 18.1886 109.827 18.2229 110.001C18.2572 110.175 18.3417 110.334 18.4659 110.459C18.5901 110.584 18.7484 110.67 18.9207 110.704C19.093 110.739 19.2715 110.721 19.4338 110.653C19.5961 110.585 19.7348 110.471 19.8323 110.323C19.9299 110.176 19.9819 110.003 19.9819 109.826C19.9815 109.589 19.8879 109.362 19.7215 109.194C19.5551 109.026 19.3295 108.932 19.0942 108.932Z" fill="#283035"/>
<path d="M32.3298 116.937H25.2837C25.1246 116.937 24.972 116.873 24.8595 116.76C24.7469 116.647 24.6837 116.493 24.6837 116.333V103.486C24.6837 103.326 24.7469 103.172 24.8595 103.059C24.972 102.945 25.1246 102.881 25.2837 102.881H32.3298C32.4889 102.881 32.6416 102.945 32.7541 103.059C32.8666 103.172 32.9298 103.326 32.9298 103.486V116.333C32.9298 116.493 32.8666 116.647 32.7541 116.76C32.6416 116.873 32.4889 116.937 32.3298 116.937ZM25.8837 115.728H31.7298V104.091H25.8837V115.728Z" fill="#283035"/>
<path d="M39.3762 116.937H32.3298C32.1707 116.937 32.0181 116.873 31.9055 116.76C31.793 116.647 31.7298 116.493 31.7298 116.333V103.486C31.7298 103.326 31.793 103.172 31.9055 103.059C32.0181 102.945 32.1707 102.881 32.3298 102.881H39.3762C39.5353 102.881 39.6879 102.945 39.8005 103.059C39.913 103.172 39.9762 103.326 39.9762 103.486V116.333C39.9762 116.493 39.913 116.647 39.8005 116.76C39.6879 116.873 39.5353 116.937 39.3762 116.937ZM32.9298 115.728H38.7762V104.091H32.9298V115.728Z" fill="#283035"/>
<path d="M43.2861 116.937H39.3762C39.2171 116.937 39.0645 116.873 38.952 116.76C38.8395 116.647 38.7762 116.493 38.7762 116.333V103.486C38.7762 103.326 38.8395 103.172 38.952 103.059C39.0645 102.945 39.2171 102.881 39.3762 102.881H43.3992C44.3598 102.883 45.2807 103.268 45.9599 103.952C46.6392 104.636 47.0212 105.564 47.0223 106.532V113.173C47.0211 114.171 46.627 115.128 45.9266 115.834C45.2262 116.539 44.2766 116.936 43.2861 116.937ZM39.9762 115.728H43.2861C43.9585 115.727 44.6031 115.458 45.0786 114.979C45.5541 114.5 45.8215 113.85 45.8223 113.173V106.532C45.8216 105.884 45.5661 105.264 45.1118 104.806C44.6576 104.348 44.0417 104.091 43.3992 104.09H39.9762V115.728Z" fill="#283035"/>
<path d="M37.6674 91.2579L16.1208 102.334C15.8641 102.466 15.6638 102.688 15.5571 102.957L12.6831 110.222C12.6207 110.38 12.5925 110.55 12.6004 110.72C12.6083 110.89 12.6522 111.057 12.729 111.208C12.8059 111.36 12.9139 111.493 13.046 111.6C13.1781 111.706 13.3311 111.782 13.4949 111.824L21.0204 113.744C21.2997 113.816 21.5951 113.782 21.8517 113.65L43.3986 102.574C43.6887 102.425 43.9468 102.219 44.1581 101.97C44.3695 101.72 44.53 101.431 44.6304 101.119C44.7309 100.807 44.7693 100.478 44.7436 100.151C44.7179 99.8238 44.6284 99.505 44.4804 99.2128L41.0031 92.3479C40.7042 91.7577 40.1849 91.3113 39.5593 91.1069C38.9337 90.9024 38.2532 90.9568 37.6674 91.2579Z" fill="white"/>
<path d="M33.601 93.348L27.3254 96.5741L33.0566 107.892L39.3321 104.666L33.601 93.348Z" fill="#477A85"/>
<path d="M21.312 114.388C21.1641 114.388 21.0168 114.369 20.8734 114.333L13.3491 112.413C13.1024 112.35 12.8718 112.234 12.6728 112.075C12.4739 111.915 12.3111 111.714 12.1954 111.485C12.0797 111.257 12.0137 111.006 12.0019 110.75C11.9901 110.494 12.0327 110.238 12.1269 110L15.0009 102.734C15.1615 102.328 15.4629 101.995 15.849 101.797L37.3959 90.7201C37.7561 90.5349 38.149 90.423 38.5522 90.3908C38.9553 90.3586 39.3608 90.4067 39.7455 90.5324C40.1302 90.6581 40.4865 90.8589 40.7942 91.1234C41.1018 91.3878 41.3548 91.7107 41.5386 92.0737L45.0159 98.9407C45.387 99.6738 45.454 100.525 45.202 101.308C44.95 102.091 44.3997 102.741 43.6722 103.115L22.1247 114.191C21.8731 114.32 21.5945 114.388 21.312 114.388ZM37.9404 91.7962L16.3935 102.873C16.2664 102.938 16.1672 103.048 16.1142 103.181L13.2405 110.447C13.2095 110.525 13.1955 110.61 13.1993 110.694C13.2032 110.778 13.2249 110.861 13.263 110.936C13.301 111.011 13.3546 111.077 13.42 111.13C13.4855 111.182 13.5613 111.22 13.6425 111.241L21.1677 113.161C21.3059 113.196 21.4519 113.179 21.579 113.114L43.1259 102.037C43.5699 101.809 43.9058 101.412 44.0596 100.935C44.2134 100.457 44.1726 99.9371 43.9461 99.4896L40.4691 92.6229C40.357 92.4013 40.2026 92.2042 40.0149 92.0427C39.8271 91.8813 39.6096 91.7587 39.3749 91.6819C39.1401 91.6051 38.8926 91.5757 38.6465 91.5953C38.4004 91.6149 38.1606 91.6832 37.9407 91.7962H37.9404Z" fill="#283035"/>
<path d="M18.4216 110.034C19.3812 110.034 20.1592 109.251 20.1592 108.284C20.1592 107.317 19.3812 106.533 18.4216 106.533C17.4619 106.533 16.684 107.317 16.684 108.284C16.684 109.251 17.4619 110.034 18.4216 110.034Z" fill="#283035"/>
<path d="M27.3255 96.5743L21.0499 99.8004L26.781 111.118L33.0566 107.892L27.3255 96.5743Z" fill="#7AADB8" stroke="#283035" stroke-linecap="round" stroke-linejoin="round"/>
<path d="M26.781 111.723C26.6704 111.723 26.5618 111.693 26.4674 111.634C26.373 111.576 26.2964 111.493 26.2461 111.393L20.5161 100.075C20.4803 100.005 20.4587 99.9276 20.4524 99.8484C20.4462 99.7693 20.4555 99.6896 20.4798 99.6141C20.5042 99.5386 20.543 99.4686 20.5942 99.4082C20.6454 99.3478 20.7078 99.2981 20.778 99.2621L27.0537 96.0362C27.1955 95.9634 27.3601 95.9502 27.5114 95.9996C27.6627 96.0491 27.7884 96.157 27.8607 96.2998L33.5907 107.618C33.663 107.761 33.676 107.927 33.6269 108.079C33.5778 108.232 33.4706 108.358 33.3288 108.431L27.0531 111.657C26.969 111.701 26.8757 111.723 26.781 111.723ZM21.8565 100.066L27.0423 110.307L32.2491 107.63L27.0633 97.3877L21.8565 100.066Z" fill="#283035"/>
<path d="M33.0561 108.497C32.9932 108.497 32.9308 108.487 32.871 108.467C32.7961 108.443 32.7266 108.404 32.6667 108.352C32.6067 108.301 32.5574 108.238 32.5215 108.167L26.7915 96.8487C26.7193 96.7059 26.7063 96.54 26.7554 96.3875C26.8045 96.235 26.9117 96.1084 27.0534 96.0356L33.3291 92.8112C33.3993 92.7751 33.4759 92.7533 33.5544 92.747C33.633 92.7407 33.712 92.7501 33.787 92.7745C33.8619 92.799 33.9314 92.8381 33.9913 92.8897C34.0513 92.9412 34.1006 93.0041 34.1364 93.0748L39.8664 104.393C39.9023 104.464 39.9239 104.541 39.9302 104.62C39.9364 104.699 39.9272 104.779 39.9029 104.854C39.8786 104.93 39.8397 105 39.7886 105.06C39.7375 105.12 39.675 105.17 39.6048 105.206L33.3291 108.431C33.2447 108.475 33.1511 108.498 33.0561 108.497ZM28.1322 96.8384L33.318 107.079L38.5245 104.402L33.339 94.1606L28.1322 96.8384Z" fill="#283035"/>
<path d="M33.601 93.348L37.2043 91.4957C37.913 91.1313 38.7363 91.0656 39.4932 91.3129C40.25 91.5602 40.8784 92.1003 41.24 92.8144L44.2443 98.7474C44.6059 99.4615 44.6711 100.291 44.4256 101.054C44.1802 101.816 43.6441 102.449 42.9354 102.814L39.3321 104.666L33.601 93.348Z" fill="#243D42"/>
<path d="M39.3321 105.271C39.2215 105.271 39.1129 105.241 39.0185 105.182C38.9241 105.124 38.8475 105.041 38.7972 104.941L33.0672 93.6234C32.995 93.4806 32.982 93.3147 33.0311 93.1622C33.0802 93.0097 33.1874 92.8832 33.3291 92.8103L36.9324 90.9577C37.7829 90.5218 38.7701 90.4436 39.6777 90.74C40.5854 91.0365 41.3393 91.6835 41.7741 92.5392L44.7783 98.4722C45.2112 99.3293 45.2889 100.324 44.9945 101.239C44.7 102.154 44.0575 102.914 43.2078 103.352L39.6042 105.204C39.52 105.248 39.4268 105.271 39.3321 105.271ZM34.4091 93.6122L39.5946 103.854L42.6636 102.276C43.2301 101.984 43.6584 101.477 43.8546 100.867C44.0509 100.258 43.9991 99.5941 43.7106 99.0226L40.7064 93.0896C40.4165 92.519 39.9138 92.0875 39.3086 91.8897C38.7034 91.6919 38.045 91.7439 37.4778 92.0344L34.4091 93.6122Z" fill="#283035"/>
<path d="M73.248 69.6046H53.0548C51.3979 69.6046 50.0547 70.9579 50.0547 72.6273V113.406C50.0547 115.075 51.3979 116.429 53.0548 116.429H73.248C74.9049 116.429 76.248 115.075 76.248 113.406V72.6273C76.248 70.9579 74.9049 69.6046 73.248 69.6046Z" fill="#121F21"/>
<path d="M52.9888 69.6046H73.5688C74.3912 69.6046 75.18 69.9338 75.7616 70.5197C76.3431 71.1057 76.6698 71.9005 76.6698 72.7291V83.6524H50.0547V72.5611C50.0547 72.1728 50.1306 71.7884 50.278 71.4297C50.4254 71.071 50.6415 70.7451 50.914 70.4705C51.1864 70.196 51.5099 69.9782 51.8659 69.8296C52.2219 69.681 52.6034 69.6046 52.9888 69.6046Z" fill="#121F21"/>
<path d="M73.248 117.033H53.0547C52.1003 117.032 51.1852 116.65 50.5103 115.97C49.8354 115.29 49.4557 114.368 49.4547 113.406V72.6273C49.4558 71.6656 49.8355 70.7436 50.5104 70.0636C51.1852 69.3836 52.1003 69.0011 53.0547 69H73.248C74.2025 69.001 75.1175 69.3835 75.7925 70.0636C76.4674 70.7436 76.847 71.6656 76.848 72.6273V113.406C76.847 114.368 76.4674 115.29 75.7925 115.97C75.1175 116.65 74.2025 117.032 73.248 117.033ZM53.0547 70.2091C52.4184 70.2098 51.8084 70.4648 51.3584 70.9182C50.9085 71.3715 50.6554 71.9862 50.6547 72.6273V113.406C50.6554 114.047 50.9085 114.662 51.3584 115.115C51.8084 115.568 52.4184 115.823 53.0547 115.824H73.248C73.8843 115.824 74.4944 115.569 74.9444 115.115C75.3943 114.662 75.6474 114.047 75.648 113.406V72.6273C75.6473 71.9862 75.3942 71.3715 74.9443 70.9182C74.4943 70.4648 73.8843 70.2098 73.248 70.2091H53.0547Z" fill="#283035"/>
<path d="M50.0547 107.49H76.248V113.439C76.248 114.232 75.9354 114.992 75.3789 115.553C74.8224 116.114 74.0677 116.429 73.2807 116.429H53.1591C52.3355 116.429 51.5455 116.099 50.9631 115.512C50.3807 114.925 50.0535 114.129 50.0535 113.3V107.49H50.0547Z" fill="#E6E6E6"/>
<path d="M73.3405 117.033H53.1592C52.1767 117.032 51.2348 116.638 50.5401 115.938C49.8454 115.238 49.4547 114.289 49.4536 113.3V107.49C49.4536 107.329 49.5168 107.175 49.6293 107.062C49.7418 106.949 49.8944 106.885 50.0536 106.885H76.2469C76.406 106.885 76.5586 106.949 76.6711 107.062C76.7836 107.175 76.8469 107.329 76.8469 107.49V113.499C76.8458 114.436 76.476 115.334 75.8187 115.997C75.1614 116.659 74.2702 117.032 73.3405 117.033ZM50.6548 108.094V113.3C50.6555 113.969 50.9196 114.61 51.3891 115.083C51.8585 115.557 52.4951 115.823 53.1592 115.824H73.3393C73.951 115.824 74.5376 115.578 74.9702 115.143C75.4028 114.707 75.6461 114.116 75.6469 113.499V108.094H50.6548Z" fill="#283035"/>
<path d="M63.3657 113.263C64.1902 113.263 64.8585 112.589 64.8585 111.759C64.8585 110.928 64.1902 110.255 63.3657 110.255C62.5413 110.255 61.8729 110.928 61.8729 111.759C61.8729 112.589 62.5413 113.263 63.3657 113.263Z" fill="#283035"/>
<g opacity="0.3">
<path d="M70.756 88.9388H55.9696C55.8104 88.9388 55.6578 88.8751 55.5453 88.7617C55.4328 88.6484 55.3696 88.4946 55.3696 88.3343C55.3696 88.1739 55.4328 88.0202 55.5453 87.9068C55.6578 87.7934 55.8104 87.7297 55.9696 87.7297H70.756C70.9151 87.7297 71.0677 87.7934 71.1802 87.9068C71.2928 88.0202 71.356 88.1739 71.356 88.3343C71.356 88.4946 71.2928 88.6484 71.1802 88.7617C71.0677 88.8751 70.9151 88.9388 70.756 88.9388Z" fill="#E6E6E6"/>
</g>
<g opacity="0.3">
<path d="M68.2213 93.6214H58.9267C58.7675 93.6214 58.6149 93.5577 58.5024 93.4443C58.3899 93.3309 58.3267 93.1771 58.3267 93.0168C58.3267 92.8565 58.3899 92.7027 58.5024 92.5893C58.6149 92.4759 58.7675 92.4123 58.9267 92.4123H68.2213C68.3804 92.4123 68.533 92.4759 68.6455 92.5893C68.758 92.7027 68.8213 92.8565 68.8213 93.0168C68.8213 93.1771 68.758 93.3309 68.6455 93.4443C68.533 93.5577 68.3804 93.6214 68.2213 93.6214Z" fill="#E6E6E6"/>
</g>
<g opacity="0.3">
<path d="M70.756 97.8779H55.9696C55.8104 97.8779 55.6578 97.8142 55.5453 97.7009C55.4328 97.5875 55.3696 97.4337 55.3696 97.2734C55.3696 97.1131 55.4328 96.9593 55.5453 96.8459C55.6578 96.7326 55.8104 96.6689 55.9696 96.6689H70.756C70.9151 96.6689 71.0677 96.7326 71.1802 96.8459C71.2928 96.9593 71.356 97.1131 71.356 97.2734C71.356 97.4337 71.2928 97.5875 71.1802 97.7009C71.0677 97.8142 70.9151 97.8779 70.756 97.8779Z" fill="#E6E6E6"/>
</g>
<path opacity="0.9" d="M63.3657 81.0867C65.2219 81.0867 66.7266 79.5706 66.7266 77.7003C66.7266 75.8301 65.2219 74.314 63.3657 74.314C61.5095 74.314 60.0048 75.8301 60.0048 77.7003C60.0048 79.5706 61.5095 81.0867 63.3657 81.0867Z" fill="#DEEBED"/>
<path d="M68.2212 101.956C68.2212 102.408 68.0432 102.841 67.7263 103.16C67.4093 103.479 66.9795 103.659 66.5313 103.659H60.1941C59.7459 103.659 59.3161 103.479 58.9992 103.16C58.6823 102.841 58.5042 102.408 58.5042 101.956C58.5042 101.732 58.5479 101.511 58.6329 101.304C58.7178 101.098 58.8423 100.91 58.9992 100.752C59.1561 100.594 59.3424 100.468 59.5474 100.383C59.7524 100.297 59.9722 100.253 60.1941 100.253H66.5313C66.7532 100.253 66.973 100.297 67.178 100.383C67.383 100.468 67.5693 100.594 67.7263 100.752C67.8832 100.91 68.0076 101.098 68.0926 101.304C68.1775 101.511 68.2212 101.732 68.2212 101.956Z" fill="#EB6347"/>
<path d="M146.628 0.769836H73.8492C72.1485 0.769836 70.7698 2.14853 70.7698 3.84924V60.9282C70.7698 62.6289 72.1485 64.0076 73.8492 64.0076H146.628C148.329 64.0076 149.708 62.6289 149.708 60.9282V3.84924C149.708 2.14853 148.329 0.769836 146.628 0.769836Z" fill="url(#paint1_linear_29_1316)"/>
<path d="M149.707 9.02803H70.7698C70.5657 9.02803 70.3699 8.94693 70.2255 8.80255C70.0811 8.65818 70 8.46236 70 8.25818V3.84925C70.0011 2.82871 70.407 1.85029 71.1286 1.12866C71.8503 0.40703 72.8287 0.00112075 73.8492 0H146.628C147.648 0.00112075 148.627 0.40703 149.348 1.12866C150.07 1.85029 150.476 2.82871 150.477 3.84925V8.25818C150.477 8.46236 150.396 8.65818 150.252 8.80255C150.107 8.94693 149.911 9.02803 149.707 9.02803ZM71.5393 7.48833H148.937V3.84925C148.937 3.23691 148.693 2.64982 148.26 2.21683C147.827 1.78384 147.24 1.54031 146.628 1.5397H73.8492C73.2369 1.54041 72.6499 1.78397 72.2169 2.21694C71.784 2.64991 71.5404 3.23694 71.5397 3.84925L71.5393 7.48833Z" fill="#283035"/>
<path d="M73.8492 0.769836H146.628C147.444 0.769836 148.228 1.09427 148.805 1.67177C149.383 2.24927 149.707 3.03253 149.707 3.84924V9.72473H70.7698V3.84924C70.7698 3.03253 71.0943 2.24927 71.6718 1.67177C72.2493 1.09427 73.0325 0.769836 73.8492 0.769836Z" fill="#D0DDF0"/>
<path d="M149.707 10.4946H70.7698C70.5657 10.4946 70.3699 10.4135 70.2255 10.2691C70.0811 10.1247 70 9.92892 70 9.72475V3.84925C70.0011 2.82871 70.407 1.85029 71.1286 1.12866C71.8503 0.40703 72.8287 0.00112075 73.8492 0H146.628C147.648 0.00112075 148.627 0.40703 149.348 1.12866C150.07 1.85029 150.476 2.82871 150.477 3.84925V9.72475C150.477 9.92892 150.396 10.1247 150.252 10.2691C150.107 10.4135 149.911 10.4946 149.707 10.4946ZM71.5393 8.9549H148.937V3.84925C148.937 3.23691 148.693 2.64982 148.26 2.21683C147.827 1.78384 147.24 1.54031 146.628 1.5397H73.8492C73.2369 1.54041 72.6499 1.78397 72.2169 2.21694C71.784 2.64991 71.5404 3.23694 71.5397 3.84925L71.5393 8.9549Z" fill="#283035"/>
<path d="M149.707 10.4946H70.7698C70.5657 10.4946 70.3699 10.4135 70.2255 10.2691C70.0811 10.1247 70 9.92892 70 9.72475V3.84925C70.0011 2.82871 70.407 1.85029 71.1286 1.12866C71.8503 0.40703 72.8287 0.00112075 73.8492 0H146.628C147.648 0.00112075 148.627 0.40703 149.348 1.12866C150.07 1.85029 150.476 2.82871 150.477 3.84925V9.72475C150.477 9.92892 150.396 10.1247 150.252 10.2691C150.107 10.4135 149.911 10.4946 149.707 10.4946ZM71.5393 8.9549H148.937V3.84925C148.937 3.23691 148.693 2.64982 148.26 2.21683C147.827 1.78384 147.24 1.54031 146.628 1.5397H73.8492C73.2369 1.54041 72.6499 1.78397 72.2169 2.21694C71.784 2.64991 71.5404 3.23694 71.5397 3.84925L71.5393 8.9549Z" fill="#283035"/>
<path d="M146.628 64.7771H73.8492C72.8287 64.776 71.8503 64.3701 71.1286 63.6485C70.407 62.9268 70.0011 61.9484 70 60.9279V3.84925C70.0011 2.82871 70.407 1.85029 71.1286 1.12866C71.8503 0.40703 72.8287 0.00112075 73.8492 0H146.628C147.648 0.00112075 148.627 0.40703 149.348 1.12866C150.07 1.85029 150.476 2.82871 150.477 3.84925V60.9279C150.476 61.9484 150.07 62.9268 149.348 63.6485C148.627 64.3701 147.648 64.776 146.628 64.7771ZM73.8492 1.5397C73.2369 1.54041 72.6499 1.78397 72.2169 2.21694C71.784 2.64991 71.5404 3.23694 71.5397 3.84925V60.9279C71.5404 61.5402 71.784 62.1272 72.2169 62.5602C72.6499 62.9931 73.2369 63.2367 73.8492 63.2374H146.628C147.24 63.2368 147.827 62.9933 148.26 62.5603C148.693 62.1273 148.937 61.5402 148.937 60.9279V3.84925C148.937 3.23691 148.693 2.64982 148.26 2.21683C147.827 1.78384 147.24 1.54031 146.628 1.5397H73.8492Z" fill="#283035"/>
<path d="M78.496 6.78701C79.3464 6.78701 80.0357 6.09766 80.0357 5.24731C80.0357 4.39696 79.3464 3.70761 78.496 3.70761C77.6456 3.70761 76.9563 4.39696 76.9563 5.24731C76.9563 6.09766 77.6456 6.78701 78.496 6.78701Z" fill="#121F21"/>
<path d="M83.841 6.78701C84.6914 6.78701 85.3807 6.09766 85.3807 5.24731C85.3807 4.39696 84.6914 3.70761 83.841 3.70761C82.9907 3.70761 82.3013 4.39696 82.3013 5.24731C82.3013 6.09766 82.9907 6.78701 83.841 6.78701Z" fill="#F08A75"/>
<path d="M89.1862 6.78701C90.0366 6.78701 90.7259 6.09766 90.7259 5.24731C90.7259 4.39696 90.0366 3.70761 89.1862 3.70761C88.3359 3.70761 87.6465 4.39696 87.6465 5.24731C87.6465 6.09766 88.3359 6.78701 89.1862 6.78701Z" fill="#477A85"/>
<path d="M116.119 16.8308H121.095" stroke="white" stroke-width="2" stroke-linecap="round" stroke-linejoin="round"/>
<path d="M90.7258 16.8308H112.426" stroke="white" stroke-width="2" stroke-linecap="round" stroke-linejoin="round"/>
<path d="M80.0357 16.8308H87.6464" stroke="#8CCCD9" stroke-width="2" stroke-linecap="round" stroke-linejoin="round"/>
<path d="M89.956 54.7687H106.53" stroke="#8CCCD9" stroke-width="2" stroke-linecap="round" stroke-linejoin="round"/>
<path d="M80.0357 54.7687H85.3804" stroke="white" stroke-width="2" stroke-linecap="round" stroke-linejoin="round"/>
<path d="M112.427 21.5731H115.512" stroke="white" stroke-width="2" stroke-linecap="round" stroke-linejoin="round"/>
<path d="M98.2346 21.5731H108.715" stroke="#8CCCD9" stroke-width="2" stroke-linecap="round" stroke-linejoin="round"/>
<path d="M83.8411 21.5731H94.5204" stroke="#262626" stroke-width="2" stroke-linecap="round" stroke-linejoin="round"/>
<path d="M100.371 26.3154H109.547" stroke="white" stroke-width="2" stroke-linecap="round" stroke-linejoin="round"/>
<path d="M88.8001 26.3154H97.454" stroke="#F08A75" stroke-width="2" stroke-linecap="round" stroke-linejoin="round"/>
<path d="M101.595 31.0577H103.496" stroke="white" stroke-width="2" stroke-linecap="round" stroke-linejoin="round"/>
<path d="M93.9658 31.0577H98.2346" stroke="#8CCCD9" stroke-width="2" stroke-linecap="round" stroke-linejoin="round"/>
<path d="M83.8411 31.0577H90.7258" stroke="white" stroke-width="2" stroke-linecap="round" stroke-linejoin="round"/>
<path d="M98.6229 35.7999H110.9" stroke="#262626" stroke-width="2" stroke-linecap="round" stroke-linejoin="round"/>
<path d="M83.8411 35.7999H94.8603" stroke="#F08A75" stroke-width="2" stroke-linecap="round" stroke-linejoin="round"/>
<path d="M112.824 40.5422H119.5" stroke="#8CCCD9" stroke-width="2" stroke-linecap="round" stroke-linejoin="round"/>
<path d="M98.6229 40.5422H109.304" stroke="#F08A75" stroke-width="2" stroke-linecap="round" stroke-linejoin="round"/>
<path d="M88.8001 40.5422H94.8604" stroke="white" stroke-width="2" stroke-linecap="round" stroke-linejoin="round"/>
<path d="M103.475 45.2845H109.304" stroke="white" stroke-width="2" stroke-linecap="round" stroke-linejoin="round"/>
<path d="M88.8001 45.2845H99.4795" stroke="#8CCCD9" stroke-width="2" stroke-linecap="round" stroke-linejoin="round"/>
<path d="M118.607 50.0268H125.263" stroke="white" stroke-width="2" stroke-linecap="round" stroke-linejoin="round"/>
<path d="M98.2346 50.0268H115.005" stroke="#262626" stroke-width="2" stroke-linecap="round" stroke-linejoin="round"/>
<path d="M83.8411 50.0268H94.5204" stroke="white" stroke-width="2" stroke-linecap="round" stroke-linejoin="round"/>
<path d="M178.507 20.7698H133.849C132.149 20.7698 130.77 22.1485 130.77 23.8492V71.1738C130.77 72.8745 132.149 74.2532 133.849 74.2532H178.507C180.207 74.2532 181.586 72.8745 181.586 71.1738V23.8492C181.586 22.1485 180.207 20.7698 178.507 20.7698Z" fill="url(#paint2_linear_29_1316)"/>
<path d="M178.507 75.0235H133.849C132.829 75.0223 131.85 74.6163 131.129 73.8947C130.407 73.1731 130.001 72.1947 130 71.1742V23.8492C130.001 22.8287 130.407 21.8503 131.129 21.1287C131.85 20.407 132.829 20.0011 133.849 20H178.507C179.527 20.0011 180.506 20.407 181.227 21.1287C181.949 21.8503 182.355 22.8287 182.356 23.8492V71.1742C182.355 72.1947 181.949 73.1731 181.227 73.8947C180.506 74.6163 179.527 75.0223 178.507 75.0235ZM133.849 21.5397C133.237 21.5403 132.65 21.7838 132.217 22.2168C131.784 22.6498 131.54 23.2369 131.54 23.8492V71.1742C131.54 71.7865 131.784 72.3736 132.217 72.8065C132.65 73.2395 133.237 73.4831 133.849 73.4838H178.507C179.119 73.4831 179.706 73.2395 180.139 72.8065C180.572 72.3736 180.816 71.7865 180.816 71.1742V23.8492C180.816 23.2369 180.572 22.6498 180.139 22.2168C179.706 21.7838 179.119 21.5403 178.507 21.5397H133.849Z" fill="#283035"/>
<g style="mix-blend-mode:screen" opacity="0.34">
<path d="M171.862 28.4449H140.464C139.365 28.4449 138.475 29.3353 138.475 30.4338V33.4362C138.475 34.5346 139.365 35.4251 140.464 35.4251H171.862C172.96 35.4251 173.851 34.5346 173.851 33.4362V30.4338C173.851 29.3353 172.96 28.4449 171.862 28.4449Z" stroke="white" stroke-width="2" stroke-linecap="round" stroke-linejoin="round"/>
</g>
<g style="mix-blend-mode:screen" opacity="0.34">
<path d="M158.064 39.7258H140.495C139.396 39.7258 138.506 40.6163 138.506 41.7147V44.7172C138.506 45.8156 139.396 46.7061 140.495 46.7061H158.064C159.162 46.7061 160.053 45.8156 160.053 44.7172V41.7147C160.053 40.6163 159.162 39.7258 158.064 39.7258Z" stroke="white" stroke-width="2" stroke-linecap="round" stroke-linejoin="round"/>
<path d="M171.893 39.7259H165.097C163.998 39.7259 163.108 40.6163 163.108 41.7148V44.7172C163.108 45.8156 163.998 46.7061 165.097 46.7061H171.893C172.991 46.7061 173.881 45.8156 173.881 44.7172V41.7148C173.881 40.6163 172.991 39.7259 171.893 39.7259Z" stroke="white" stroke-width="2" stroke-linecap="round" stroke-linejoin="round"/>
</g>
<path d="M138.475 58.4271H173.851" stroke="white" stroke-width="2" stroke-linecap="round" stroke-linejoin="round"/>
<path d="M138.475 62.5808H173.851" stroke="white" stroke-width="2" stroke-linecap="round" stroke-linejoin="round"/>
<path d="M138.475 66.7341H160.022" stroke="white" stroke-width="2" stroke-linecap="round" stroke-linejoin="round"/>
<g style="mix-blend-mode:multiply" opacity="0.4">
<path d="M164.501 65.3206H176.03V98.0973H160.4V69.4533C160.4 68.3574 160.832 67.3065 161.601 66.5315C162.37 65.7566 163.413 65.321 164.501 65.3206Z" fill="#999999"/>
</g>
<path d="M166.125 65.3206H234.174C234.776 65.3206 235.353 65.5616 235.779 65.9905C236.204 66.4194 236.443 67.0011 236.443 67.6076V111.719H163.778V67.685C163.778 67.0579 164.025 66.4566 164.465 66.0132C164.905 65.5698 165.502 65.3207 166.125 65.3206Z" fill="#E6E6E6"/>
<path d="M236.627 112.4H163.962C163.802 112.4 163.65 112.337 163.537 112.223C163.425 112.11 163.362 111.956 163.362 111.796V67.6638C163.362 66.8624 163.679 66.0941 164.241 65.5274C164.804 64.9607 165.566 64.642 166.362 64.6411H234.227C235.022 64.6421 235.785 64.9608 236.347 65.5275C236.91 66.0942 237.226 66.8625 237.227 67.6638V111.796C237.227 111.956 237.164 112.11 237.051 112.223C236.939 112.337 236.786 112.4 236.627 112.4ZM164.562 111.191H236.027V67.6638C236.026 67.183 235.837 66.722 235.499 66.382C235.162 66.042 234.704 65.8508 234.227 65.8502H166.362C165.884 65.8507 165.427 66.0419 165.089 66.3819C164.752 66.722 164.562 67.183 164.562 67.6638V111.191Z" fill="#283035"/>
<path d="M168.003 69.1516V107.888H232.641V69.1516H168.003Z" fill="url(#paint3_linear_29_1316)"/>
<g style="mix-blend-mode:multiply" opacity="0.32">
<path d="M183.815 80.1003H178.233C177.908 80.1003 177.644 80.3659 177.644 80.6936V99.9393C177.644 100.267 177.908 100.533 178.233 100.533H183.815C184.14 100.533 184.404 100.267 184.404 99.9393V80.6936C184.404 80.3659 184.14 80.1003 183.815 80.1003Z" fill="#999999"/>
</g>
<g style="mix-blend-mode:multiply" opacity="0.32">
<path d="M224.111 77.1782H191.869C191.206 77.1782 190.669 77.7195 190.669 78.3873V103.212C190.669 103.88 191.206 104.421 191.869 104.421H224.111C224.774 104.421 225.311 103.88 225.311 103.212V78.3873C225.311 77.7195 224.774 77.1782 224.111 77.1782Z" fill="#999999"/>
</g>
<path d="M232.59 108.333H168C167.841 108.333 167.688 108.269 167.576 108.155C167.463 108.042 167.4 107.888 167.4 107.728V69.3127C167.4 69.1524 167.463 68.9986 167.576 68.8853C167.688 68.7719 167.841 68.7082 168 68.7082H232.59C232.749 68.7082 232.902 68.7719 233.014 68.8853C233.127 68.9986 233.19 69.1524 233.19 69.3127V107.728C233.19 107.888 233.127 108.042 233.014 108.155C232.902 108.269 232.749 108.333 232.59 108.333ZM168.6 107.123H231.99V69.9173H168.6V107.123Z" fill="#283035"/>
<path d="M156.031 111.796H244.557V114.641C244.557 115.283 244.304 115.898 243.854 116.351C243.404 116.805 242.793 117.059 242.157 117.059H158.431C157.794 117.059 157.184 116.805 156.734 116.351C156.284 115.898 156.031 115.283 156.031 114.641V111.796Z" fill="#E6E6E6"/>
<path opacity="0.8" d="M159.411 117.253H241.178C242.82 117.253 244.187 115.976 244.493 114.273H156.096C156.401 115.976 157.769 117.253 159.411 117.253Z" fill="white"/>
<path d="M242.157 117.664H158.431C157.635 117.663 156.873 117.344 156.311 116.777C155.748 116.211 155.432 115.443 155.431 114.641V111.796C155.431 111.635 155.494 111.482 155.607 111.368C155.719 111.255 155.872 111.191 156.031 111.191H244.557C244.716 111.191 244.868 111.255 244.981 111.368C245.093 111.482 245.157 111.635 245.157 111.796V114.641C245.156 115.443 244.839 116.211 244.277 116.778C243.714 117.344 242.952 117.663 242.157 117.664ZM156.631 112.4V114.641C156.631 115.122 156.821 115.583 157.159 115.923C157.496 116.263 157.954 116.454 158.431 116.455H242.157C242.634 116.454 243.091 116.263 243.429 115.923C243.766 115.583 243.956 115.122 243.957 114.641V112.4H156.631Z" fill="#283035"/>
<path d="M182.789 78.5163H176.03V85.3271H182.789V78.5163Z" fill="#243D42"/>
<path d="M182.904 86.0042H176.144C175.985 86.0042 175.833 85.9406 175.72 85.8272C175.608 85.7138 175.544 85.56 175.544 85.3997V78.5889C175.544 78.4286 175.608 78.2748 175.72 78.1614C175.833 78.048 175.985 77.9843 176.144 77.9843H182.904C183.063 77.9843 183.216 78.048 183.328 78.1614C183.441 78.2748 183.504 78.4286 183.504 78.5889V85.3997C183.504 85.56 183.441 85.7138 183.328 85.8272C183.216 85.9406 183.063 86.0042 182.904 86.0042ZM176.744 84.7951H182.304V79.1934H176.744V84.7951Z" fill="#283035"/>
<path d="M182.904 86.0042H176.144C175.985 86.0042 175.833 85.9406 175.72 85.8272C175.608 85.7138 175.544 85.56 175.544 85.3997V78.5889C175.544 78.4286 175.608 78.2748 175.72 78.1614C175.833 78.048 175.985 77.9843 176.144 77.9843H182.904C183.063 77.9843 183.216 78.048 183.328 78.1614C183.441 78.2748 183.504 78.4286 183.504 78.5889V85.3997C183.504 85.56 183.441 85.7138 183.328 85.8272C183.216 85.9406 183.063 86.0042 182.904 86.0042ZM176.744 84.7951H182.304V79.1934H176.744V84.7951Z" fill="#283035"/>
<path d="M182.76 85H176V91.8108H182.76V85Z" fill="#7AADB8"/>
<path d="M182.904 92.815H176.144C175.985 92.815 175.833 92.7513 175.72 92.638C175.608 92.5246 175.544 92.3708 175.544 92.2105V85.3997C175.544 85.2393 175.608 85.0856 175.72 84.9722C175.833 84.8588 175.985 84.7951 176.144 84.7951H182.904C183.063 84.7951 183.216 84.8588 183.328 84.9722C183.441 85.0856 183.504 85.2393 183.504 85.3997V92.2105C183.504 92.3708 183.441 92.5246 183.328 92.638C183.216 92.7513 183.063 92.815 182.904 92.815ZM176.744 91.606H182.304V86.0042H176.744V91.606Z" fill="#283035"/>
<path d="M182.789 92.138H176.03V98.9488H182.789V92.138Z" fill="#EB6347"/>
<path d="M182.904 99.6259H176.144C175.985 99.6259 175.833 99.5622 175.72 99.4488C175.608 99.3354 175.544 99.1817 175.544 99.0213V92.2105C175.544 92.0502 175.608 91.8964 175.72 91.783C175.833 91.6697 175.985 91.606 176.144 91.606H182.904C183.063 91.606 183.216 91.6697 183.328 91.783C183.441 91.8964 183.504 92.0502 183.504 92.2105V99.0213C183.504 99.1817 183.441 99.3354 183.328 99.4488C183.216 99.5622 183.063 99.6259 182.904 99.6259ZM176.744 98.4168H182.304V92.8151H176.744V98.4168Z" fill="#283035"/>
<path d="M222.147 75.1109H189.904C189.241 75.1109 188.704 75.6523 188.704 76.32V101.145C188.704 101.813 189.241 102.354 189.904 102.354H222.147C222.809 102.354 223.347 101.813 223.347 101.145V76.32C223.347 75.6523 222.809 75.1109 222.147 75.1109Z" fill="white"/>
<path d="M222.147 102.958H189.904C189.426 102.958 188.969 102.767 188.631 102.427C188.294 102.087 188.104 101.626 188.104 101.145V76.32C188.104 75.8392 188.294 75.3782 188.631 75.0382C188.969 74.6982 189.426 74.5069 189.904 74.5064H222.147C222.624 74.5069 223.081 74.6982 223.419 75.0382C223.756 75.3782 223.946 75.8392 223.947 76.32V101.145C223.946 101.626 223.756 102.087 223.419 102.427C223.081 102.767 222.624 102.958 222.147 102.958ZM189.904 75.7155C189.744 75.7155 189.592 75.7792 189.479 75.8925C189.367 76.0059 189.304 76.1597 189.304 76.32V101.145C189.304 101.305 189.367 101.459 189.479 101.572C189.592 101.686 189.744 101.749 189.904 101.749H222.147C222.306 101.749 222.458 101.686 222.571 101.572C222.683 101.459 222.747 101.305 222.747 101.145V76.32C222.747 76.1597 222.683 76.0059 222.571 75.8925C222.458 75.7792 222.306 75.7155 222.147 75.7155H189.904Z" fill="#283035"/>
<g opacity="0.3">
<path d="M213.207 95.9179H212.757V95.3133H212.907V95.1622H213.507V95.6156C213.507 95.6957 213.475 95.7726 213.419 95.8293C213.362 95.886 213.286 95.9179 213.207 95.9179Z" fill="#283035"/>
<path d="M212.187 95.9178H211.329V95.3133H212.187V95.9178ZM210.757 95.9178H209.9V95.3133H210.757V95.9178ZM209.329 95.9178H208.471V95.3133H209.329V95.9178ZM207.9 95.9178H207.042V95.3133H207.9V95.9178ZM206.47 95.9178H205.613V95.3133H206.47V95.9178ZM205.041 95.9178H204.184V95.3133H205.041V95.9178ZM203.613 95.9178H202.755V95.3133H203.613V95.9178ZM202.184 95.9178H201.327V95.3133H202.184L202.184 95.9178ZM200.754 95.9178H199.897V95.3133H200.754V95.9178Z" fill="#477A85"/>
<path d="M199.324 95.9179H198.874C198.795 95.9179 198.719 95.886 198.662 95.8293C198.606 95.7726 198.574 95.6957 198.574 95.6156V95.1622H199.174V95.3133H199.324V95.9179Z" fill="#283035"/>
<path d="M199.174 94.5567H198.574V93.6499H199.174V94.5567ZM199.174 93.0433H198.574V92.1365H199.174V93.0433ZM199.174 91.5295H198.574V90.6227H199.174V91.5295ZM199.174 90.016H198.574V89.1092H199.174V90.016ZM199.174 88.5022H198.574V87.5954H199.174V88.5022ZM199.174 86.9884H198.574V86.0816H199.174V86.9884ZM199.174 85.475H198.574V84.5681H199.174V85.475ZM199.174 83.9615H198.574V83.0547H199.174V83.9615Z" fill="#477A85"/>
<path d="M199.174 82.4477H198.574V81.9943C198.574 81.9141 198.606 81.8372 198.662 81.7805C198.719 81.7238 198.795 81.692 198.874 81.692H199.324V82.2965H199.174V82.4477Z" fill="#283035"/>
<path d="M212.187 82.2965H211.329V81.692H212.187V82.2965ZM210.757 82.2965H209.9V81.692H210.757V82.2965ZM209.328 82.2965H208.471V81.692H209.328V82.2965ZM207.9 82.2965H207.042V81.692H207.9V82.2965ZM206.47 82.2965H205.613V81.692H206.47V82.2965ZM205.041 82.2965H204.184V81.692H205.041V82.2965ZM203.613 82.2965H202.755V81.692H203.613V82.2965ZM202.183 82.2965H201.327V81.692H202.184L202.183 82.2965ZM200.754 82.2965H199.897V81.692H200.754V82.2965Z" fill="#477A85"/>
<path d="M213.507 82.4477H212.907V82.2965H212.757V81.692H213.207C213.286 81.692 213.362 81.7238 213.419 81.7805C213.475 81.8372 213.507 81.9141 213.507 81.9943V82.4477Z" fill="#283035"/>
<path d="M213.507 94.5567H212.907V93.6499H213.507V94.5567ZM213.507 93.0433H212.907V92.1365H213.507V93.0433ZM213.507 91.5298H212.907V90.623H213.507V91.5298ZM213.507 90.016H212.907V89.1092H213.507V90.016ZM213.507 88.5022H212.907V87.5954H213.507V88.5022ZM213.507 86.9884H212.907V86.0816H213.507V86.9884ZM213.507 85.475H212.907V84.5681H213.507V85.475ZM213.507 83.9615H212.907V83.0547H213.507V83.9615Z" fill="#477A85"/>
</g>
<path d="M199.999 80.9254H197.878V83.0628H199.999V80.9254Z" fill="#999999"/>
<path d="M199.9 83.1372H197.787C197.747 83.1372 197.709 83.1213 197.681 83.0929C197.652 83.0646 197.637 83.0261 197.637 82.986V80.8574C197.637 80.8174 197.652 80.7789 197.681 80.7506C197.709 80.7222 197.747 80.7063 197.787 80.7063H199.899C199.939 80.7063 199.977 80.7222 200.005 80.7506C200.033 80.7789 200.049 80.8174 200.049 80.8574V82.986C200.049 83.0261 200.033 83.0645 200.005 83.0928C199.977 83.1211 199.939 83.1371 199.9 83.1372ZM197.937 82.8349H199.75V81.0086H197.937L197.937 82.8349Z" fill="#283035"/>
<path d="M199.999 94.5471H197.878V96.6845H199.999V94.5471Z" fill="#999999"/>
<path d="M199.9 96.7588H197.787C197.747 96.7588 197.709 96.7429 197.681 96.7145C197.652 96.6862 197.637 96.6477 197.637 96.6077V94.4794C197.637 94.4393 197.652 94.4008 197.681 94.3725C197.709 94.3441 197.747 94.3282 197.787 94.3282H199.899C199.939 94.3282 199.977 94.3441 200.005 94.3725C200.033 94.4008 200.049 94.4393 200.049 94.4794V96.6077C200.049 96.6477 200.033 96.6861 200.005 96.7144C199.977 96.7427 199.939 96.7587 199.9 96.7588ZM197.937 96.4565H199.75V94.6305H197.937L197.937 96.4565Z" fill="#283035"/>
<path d="M214.267 80.9254H212.146V83.0628H214.267V80.9254Z" fill="#999999"/>
<path d="M214.264 83.1372H212.151C212.111 83.1372 212.073 83.1213 212.045 83.0929C212.017 83.0646 212.001 83.0261 212.001 82.986V80.8574C212.001 80.8174 212.017 80.7789 212.045 80.7506C212.073 80.7222 212.111 80.7063 212.151 80.7063H214.264C214.303 80.7063 214.341 80.7222 214.37 80.7506C214.398 80.7789 214.414 80.8174 214.414 80.8574V82.986C214.414 83.0261 214.398 83.0646 214.37 83.0929C214.341 83.1213 214.303 83.1372 214.264 83.1372ZM212.301 82.8349H214.114V81.0086H212.301V82.8349Z" fill="#283035"/>
<path d="M214.267 94.5471H212.146V96.6845H214.267V94.5471Z" fill="#999999"/>
<path d="M214.264 96.7588H212.151C212.111 96.7588 212.073 96.7429 212.045 96.7145C212.017 96.6862 212.001 96.6477 212.001 96.6077V94.4794C212.001 94.4393 212.017 94.4008 212.045 94.3725C212.073 94.3441 212.111 94.3282 212.151 94.3282H214.264C214.303 94.3282 214.341 94.3441 214.37 94.3725C214.398 94.4008 214.414 94.4393 214.414 94.4794V96.6077C214.414 96.6477 214.398 96.6862 214.37 96.7145C214.341 96.7429 214.303 96.7588 214.264 96.7588ZM212.301 96.4565H214.114V94.6305H212.301V96.4565Z" fill="#283035"/>
<path d="M179.561 88.9157L181.674 93.5157L183.761 94.5957L185.199 93.1478L184.126 91.0452L179.561 88.9157Z" fill="white"/>
<path d="M183.761 94.7469C183.737 94.7469 183.714 94.7412 183.693 94.7302L181.606 93.6496C181.576 93.6344 181.553 93.6095 181.539 93.5789L179.427 88.9801C179.414 88.952 179.41 88.9206 179.415 88.8901C179.42 88.8596 179.435 88.8315 179.457 88.8096C179.478 88.7877 179.506 88.7731 179.536 88.7677C179.567 88.7623 179.598 88.7664 179.626 88.7794L184.191 90.9089C184.221 90.9231 184.246 90.9472 184.261 90.9772L185.333 93.0798C185.348 93.1083 185.353 93.1407 185.348 93.1723C185.343 93.2039 185.328 93.2331 185.306 93.2557L183.869 94.7036C183.855 94.7176 183.838 94.7287 183.819 94.7361C183.801 94.7435 183.781 94.7472 183.761 94.7469ZM181.789 93.4048L183.732 94.411L185.015 93.1191L184.016 91.1607L179.869 89.2261L181.789 93.4048Z" fill="#283035"/>
<path d="M182.232 92.0923C182.55 92.0923 182.808 91.8326 182.808 91.5123C182.808 91.1919 182.55 90.9322 182.232 90.9322C181.914 90.9322 181.656 91.1919 181.656 91.5123C181.656 91.8326 181.914 92.0923 182.232 92.0923Z" fill="#283035"/>
<path d="M181.924 91.447C181.904 91.447 181.884 91.4431 181.866 91.4356C181.848 91.428 181.831 91.4169 181.817 91.4028L179.455 89.0227C179.428 88.9942 179.413 88.9561 179.413 88.9164C179.413 88.8768 179.429 88.8389 179.457 88.8109C179.485 88.7828 179.522 88.767 179.562 88.7666C179.601 88.7663 179.639 88.7815 179.667 88.809L182.029 91.1891C182.05 91.2103 182.065 91.2372 182.07 91.2664C182.076 91.2957 182.073 91.326 182.062 91.3536C182.05 91.3812 182.031 91.4048 182.007 91.4214C181.982 91.438 181.953 91.4469 181.924 91.447Z" fill="#283035"/>
<path d="M185.21 93.1367L183.761 94.5959L184.799 95.6411L186.247 94.1819L185.21 93.1367Z" fill="white"/>
<path d="M184.799 95.7921C184.779 95.7921 184.759 95.7883 184.741 95.7807C184.723 95.7731 184.706 95.762 184.693 95.748L183.655 94.7027C183.627 94.6744 183.611 94.6359 183.611 94.5959C183.611 94.5558 183.627 94.5173 183.655 94.489L185.103 93.0299C185.131 93.0016 185.169 92.9857 185.209 92.9857C185.249 92.9857 185.287 93.0016 185.315 93.0299L186.353 94.0749C186.381 94.1032 186.397 94.1417 186.397 94.1818C186.397 94.2218 186.381 94.2603 186.353 94.2886L184.905 95.748C184.877 95.7762 184.838 95.7921 184.799 95.7921ZM183.973 94.5957L184.799 95.4273L186.035 94.1816L185.209 93.3504L183.973 94.5957Z" fill="#283035"/>
<defs>
<linearGradient id="paint0_linear_29_1316" x1="69.0552" y1="13.7778" x2="124.538" y2="102.927" gradientUnits="userSpaceOnUse">
<stop offset="0.3125" stop-color="#EB6347"/>
<stop offset="1" stop-color="#365C63"/>
</linearGradient>
<linearGradient id="paint1_linear_29_1316" x1="92.2781" y1="64.0076" x2="132.109" y2="-0.591404" gradientUnits="userSpaceOnUse">
<stop stop-color="#243D42"/>
<stop offset="1" stop-color="#5999A6"/>
</linearGradient>
<linearGradient id="paint2_linear_29_1316" x1="181.752" y1="21.2564" x2="135.941" y2="67.4673" gradientUnits="userSpaceOnUse">
<stop offset="0.3125" stop-color="#EB6347"/>
<stop offset="1" stop-color="#365C63"/>
</linearGradient>
<linearGradient id="paint3_linear_29_1316" x1="232.641" y1="97.3333" x2="198.245" y2="53.1572" gradientUnits="userSpaceOnUse">
<stop stop-color="#243D42"/>
<stop offset="1" stop-color="#5999A6"/>
</linearGradient>
</defs>
</svg>
